<svg x="0" y="0" width="1200" height="600" viewBox="0 0 1200 600" xmlns="http://www.w3.org/2000/svg" xmlns:xlink="http://www.w3.org/1999/xlink" xmlns:fi="http://pattern.flaticon.com/"><rect x="0px" y="0px" width="100%" height="100%" opacity="1" fill="#e3f2fd"/><defs><g transform="matrix(0.0390625 0 0 0.0390625 76.5 340)" id="L1_445"><path d="m120.792969 197.539062c1.078125 3.097657 3.984375 5.039063 7.089843 5.039063.820313 0 1.652344-.132813 2.46875-.417969 3.917969-1.363281 5.988282-5.640625 4.625-9.558594-4.054687-11.640624-6.445312-23.828124-7.109374-36.21875-.023438-.460937-.09375-.914062-.195313-1.355468v-140.011719h163.863281c4.148438 0 7.511719-3.359375 7.511719-7.507813 0-4.148437-3.363281-7.507812-7.511719-7.507812h-168.367187c-5.796875 0-10.511719 4.714844-10.511719 10.511719v146.273437c0 .761719.113281 1.5.324219 2.191406.867187 13.183594 3.492187 26.148438 7.8125 38.5625zm0 0" fill="#ffffff"/><path d="m487.019531 318.121094h-168.191406l-15.703125-28.445313c27.621094-8.515625 51.855469-24.824219 70.347656-47.410156 6.914063-8.445313 12.785156-17.519531 17.59375-27.066406.023438-.003907.046875-.007813.070313-.015625 27.222656-8.097656 55.332031-23.164063 73.351562-39.320313 17.960938-16.101562 29.542969-35.007812 33.5-54.679687 4.257813-21.15625-.964843-41.839844-14.328125-56.746094-13.683594-15.265625-33.199218-22.199219-54.96875-19.527344-7.300781.898438-14.667968 2.875-22.007812 5.886719v-40.285156c0-5.796875-4.714844-10.511719-10.511719-10.511719h-69.902344c-4.148437 0-7.507812 3.359375-7.507812 7.507812 0 4.148438 3.359375 7.507813 7.507812 7.507813h65.398438v47.746094c0 .042969-.003907.082031 0 .125v92.144531c-.105469.4375-.171875.890625-.195313 1.355469-3.0625 57.089843-42.210937 105.425781-97.414062 120.285156-3.597656.964844-6.414063 3.664063-7.527344 7.210937-1.019531 3.246094-.46875 6.714844 1.464844 9.460938l13.683594 24.777344h-74.183594c4.136718-9.828125 6.109375-22.695313 6.109375-39.40625 0-18.898438-2.417969-32.457032-7.613281-42.675782-6.878907-13.523437-18.546876-20.855468-34.683594-21.785156-2.503906-.152344-4.992188.632813-6.972656 2.152344-2.765626-1.429688-5.894532-2.253906-9.214844-2.253906-3.324219 0-6.453125.824218-9.21875 2.253906-1.980469-1.519531-4.464844-2.296875-6.972656-2.152344-14.238282.820313-24.992188 6.632813-32.050782 17.28125-.183594-.210937-.359375-.425781-.546875-.636718-1.6875-1.898438-4.015625-3.125-6.507812-3.460938-.941407-2.972656-2.574219-5.773438-4.929688-8.125-2.347656-2.351562-5.144531-3.980469-8.113281-4.921875-.324219-2.480469-1.535156-4.785156-3.40625-6.453125-12.066406-10.753906-25.5-13.820312-39.925781-9.121094-10.898438 3.550782-22.199219 11.429688-35.5625 24.792969s-21.242188 24.664063-24.792969 35.5625c-4.699219 14.425781-1.628906 27.859375 9.121094 39.925781 1.664062 1.867188 3.964844 3.078125 6.433594 3.40625.964843 3.023438 2.632812 5.800782 4.941406 8.109375 2.3125 2.3125 5.089844 3.980469 8.117187 4.945313.117188.882812.359375 1.742187.695313 2.5625h-7.421875c-13.773438 0-24.980469 11.207031-24.980469 24.980468 0 13.777344 11.207031 24.984376 24.980469 24.984376h114.523437c3.800782 23.40625 23.960938 40.976562 48.300782 40.976562h136.324218c24.050782 0 44.457032-17.667969 48.300782-40.976562h114.589843c13.773438 0 24.980469-11.207032 24.980469-24.984376 0-13.773437-11.207031-24.980468-24.980469-24.980468zm-80.335937-206.789063c9.695312-8.6875 20.007812-14.25 28.292968-15.269531 6.320313-.773438 8.90625 1.214844 10.308594 2.773438 2.507813 2.800781 3.242188 6.898437 2.179688 12.183593-1.722656 8.570313-7.894532 17.96875-17.378906 26.46875-5.890626 5.28125-14.097657 10.765625-23.402344 15.722657zm23.839844-51.519531c16.738281-2.054688 31.644531 3.144531 41.957031 14.648438 10.167969 11.34375 14.101562 27.292968 10.789062 43.761718-3.316406 16.472656-13.277343 32.539063-28.804687 46.460938-13.636719 12.222656-34.558594 24.183594-55.640625 32.078125 2.867187-8.410157 4.980469-17.09375 6.28125-25.980469 13.839843-6.496094 26.4375-14.433594 35.003906-22.113281 11.878906-10.648438 19.714844-22.964844 22.074219-34.6875 2.019531-10.039063.042968-18.742188-5.71875-25.167969-3.875-4.320312-11.066406-9.148438-23.320313-7.652344-8.316406 1.019532-17.441406 4.882813-26.460937 11.085938v-24.964844c8.011718-3.992188 16.015625-6.507812 23.839844-7.46875zm-235.277344 170.007812c16.507812 3.128907 23.347656 17.769532 23.347656 48.894532 0 18.957031-2.585938 31.574218-8.101562 39.40625h-15.246094zm-20.125-.652343c2.816406 0 5.109375 2.292969 5.109375 5.109375v83.84375h-10.21875v-83.84375c0-2.816406 2.292969-5.109375 5.109375-5.109375zm-20.125.652343v88.300782h-15.238282c-5.511718-7.820313-8.109374-20.46875-8.109374-39.40625 0-11.839844.992187-21.289063 3.128906-28.632813.210937-.492187.367187-1.011719.46875-1.542969 3.582031-10.96875 9.96875-16.867187 19.75-18.71875zm-37.175782 68.859376c.996094 7.511718 2.632813 13.953124 4.941407 19.441406h-25.191407c4.148438-3.332032 8.464844-7.238282 13.03125-11.804688 2.625-2.625 5.011719-5.160156 7.21875-7.636718zm-76.386718 1.316406c-.964844.96875-2.246094 1.496094-3.613282 1.496094-1.363281 0-2.644531-.53125-3.609374-1.496094-.96875-.964844-1.5-2.246094-1.5-3.613282 0-1.363281.53125-2.648437 1.5-3.613281l62.835937-62.835937c0-.003906.003906-.003906.003906-.003906 1.992188-1.992188 5.234375-1.992188 7.226563-.003907 1.992187 1.992188 1.992187 5.230469.003906 7.222657zm-2.929688-65.773438c15.167969-15.164062 27.09375-22.5 37.589844-22.5 4.730469 0 9.175781 1.496094 13.496094 4.433594l-3.144532 3.144531c-.003906.003907-.007812.007813-.011718.007813 0 .003906-.003906.007812-.007813.011718l-65.984375 65.984376c-9.460937-13.882813-3.945312-29.074219 18.0625-51.082032zm10.394532 79.542969 3.152343-3.152344 62.835938-62.832031c0-.003906.003906-.007812.007812-.007812.003907-.003907.007813-.007813.007813-.011719l3.144531-3.144531c.707031 1.035156 1.316406 2.070312 1.855469 3.105468-2.011719 7.652344-3.070313 16.75-3.242188 27.746094-3.695312 6.078125-9.148437 12.703125-16.679687 20.234375-14.296875 14.296875-25.714844 21.625-35.765625 22.417969h-3.589844c-4.078125-.328125-7.949219-1.78125-11.726562-4.355469zm275.230468 80.28125h-136.324218c-16.019532 0-29.433594-10.96875-33.007813-25.960937h202.316406c-3.613281 14.929687-17.160156 25.960937-32.984375 25.960937zm162.890625-40.976563h-462.039062c-5.496094 0-9.964844-4.472656-9.964844-9.96875 0-5.496093 4.46875-9.964843 9.964844-9.964843h34.546875c.890625.066406 1.78125.109375 2.679687.109375.917969 0 1.84375-.039063 2.773438-.109375h96.394531c.367188.054687.742188.09375 1.128906.09375.382813 0 .757813-.039063 1.128906-.09375h323.386719c5.496094 0 9.964844 4.46875 9.964844 9.964843 0 5.496094-4.46875 9.96875-9.964844 9.96875zm0 0" fill="#ffffff"/></g><g transform="matrix(0.07812503725290298 0 0 0.07812503725290298 67.5 67.5)" id="L1_446"><path d="m382.714844 375.042969c-2.90625.230469-5.867188.160156-8.761719-.203125l-.136719-.019532c-14.90625-1.871093-29.589844 5.195313-37.421875 18.058594-6.042969 9.925782-15.609375 16.808594-26.941406 19.386719-11.296875 2.570313-22.871094.519531-32.597656-5.777344-.019531-.011719-.039063-.027343-.054688-.039062-12.621093-8.191407-28.925781-8.203125-41.554687-.027344-.015625.011719-.03125.019531-.050782.03125-9.738281 6.324219-21.339843 8.386719-32.660156 5.808594-11.324218-2.578125-20.886718-9.460938-26.945312-19.410157-7.816406-12.835937-22.492188-19.910156-37.367188-18.035156l-.140625.019532c-11.511719 1.449218-22.84375-1.734376-31.910156-8.972657-9.070313-7.238281-14.6875-17.582031-15.832031-29.203125-1.472656-14.980468-11.652344-27.734375-25.933594-32.496094-11.015625-3.671874-19.863281-11.457031-24.90625-21.917968-5.042969-10.464844-5.621094-22.230469-1.632812-33.140625 2.539062-6.933594 9.203124-11.589844 16.585937-11.589844h65.671875c4.09375 0 7.410156-3.320313 7.410156-7.410156 0-4.09375-3.316406-7.414063-7.410156-7.414063h-65.671875c-13.582031 0-25.839844 8.570313-30.507813 21.320313-5.378906 14.703125-4.597656 30.566406 2.199219 44.667969 6.800781 14.105468 18.722657 24.597656 33.574219 29.546874 8.738281 2.914063 14.96875 10.71875 15.875 19.960938 1.53125 15.5625 9.105469 29.507812 21.328125 39.261719 12.222656 9.753906 27.503906 14.050781 42.980469 12.09375l.136718-.015625c9.128907-1.152344 18.105469 3.179687 22.90625 11.058594 8.140626 13.371093 21.03125 22.648437 36.296876 26.125 4.289062.980468 8.605468 1.460937 12.890624 1.460937 10.945313 0 21.664063-3.148437 31.09375-9.261719.011719-.007812.03125-.019531.046876-.027344 7.714843-5.011718 17.679687-5.019531 25.40625-.03125.015624.011719.03125.019532.050781.03125 13.121093 8.523438 28.75 11.304688 44.007812 7.835938 15.273438-3.476562 28.167969-12.753906 36.332031-26.160156 4.78125-7.851563 13.753907-12.183594 22.851563-11.035156l.140625.015624c3.933594.496094 7.917969.589844 11.832031.277344 4.082031-.328125 7.125-3.902344 6.796875-7.980468-.324218-4.078126-3.902344-7.125-7.976562-6.792969zm0 0" fill="#ffffff"/><path d="m511.960938 80.5625c-1.082032-27.679688-23.640626-49.660156-51.359376-50.03125-17.199218-.269531-33.113281 7.835938-43.066406 21.726562-5.105468-1.628906-10.410156-2.453124-15.8125-2.453124-11.910156 0-23.382812 4.152343-32.535156 11.453124-13.175781-35.441406-47.34375-60.757812-87.316406-60.757812h-55.429688c-39.019531 0-72.28125 25.125-84.464844 60.042969-8.980468-6.914063-20.007812-10.738281-31.695312-10.738281-5.410156 0-10.710938.824218-15.8125 2.453124-9.789062-13.675781-25.367188-21.734374-42.351562-21.734374-3.503907 0-7.011719.351562-10.421876 1.046874-4.011718.816407-6.601562 4.726563-5.785156 8.738282.8125 4.011718 4.726563 6.601562 8.738282 5.785156 2.441406-.496094 4.953124-.746094 7.46875-.746094 13.027343 0 24.898437 6.625 31.75 17.71875 2.648437 4.289063 7.972656 6.046875 12.664062 4.183594 4.382812-1.738281 9.007812-2.625 13.75-2.625 10.6875 0 20.605469 4.460938 27.675781 12.316406-.617187 4.242188-.945312 8.578125-.945312 12.988282v90.429687c0 4.175781.285156 8.304687.824219 12.371094-3.675782 1.1875-7.507813 1.804687-11.460938 1.804687-13.238281 0-25.601562-7.121094-32.269531-18.585937-2.84375-4.894531-8.953125-6.925781-14.203125-4.734375-5.761719 2.402344-11.882813 3.296875-18.1875 2.667968-17.691406-1.78125-31.683594-15.9375-33.28125-33.660156-.519532-5.792968.261718-11.449218 2.324218-16.804687 1.707032-4.445313.445313-9.539063-3.148437-12.675781-8.125-7.09375-12.785156-17.335938-12.785156-28.101563 0-7.472656 2.199219-14.683594 6.363281-20.847656 2.292969-3.390625 1.402344-8-1.992188-10.289063-3.390624-2.292968-7.996093-1.398437-10.289062 1.992188-5.828125 8.625-8.90625 18.703125-8.90625 29.148437 0 14.257813 5.847656 27.859375 16.121094 37.675781-2.28125 6.824219-3.105469 13.957032-2.449219 21.234376 2.230469 24.789062 21.808594 44.585937 46.554687 47.078124 7.675782.773438 15.445313-.152343 22.644532-2.6875 9.601562 14.515626 26.003906 23.414063 43.503906 23.414063 5.007812 0 9.882812-.695313 14.582031-2.066406 5.953125 19.820312 18.410157 37.234375 35.832031 49.40625v20.433593c0 31.835938 25.902344 57.738282 57.738282 57.738282h42.945312c31.835938 0 57.742188-25.902344 57.742188-57.738282v-20.4375c7.773437-5.429687 14.5625-11.910156 20.226562-19.179687h102.109375c7.378907 0 14.046875 4.660156 16.582031 11.59375 3.992188 10.90625 3.414063 22.675781-1.628906 33.136719-5.042968 10.464844-13.890625 18.25-24.910156 21.921875-14.28125 4.757812-24.457031 17.511719-25.941406 32.570312-.980469 9.972657-5.460938 19.3125-12.617188 26.296875-2.925781 2.859375-2.984375 7.550782-.125 10.480469 1.453125 1.484375 3.378906 2.234375 5.304688 2.234375 1.867187 0 3.734375-.703125 5.175781-2.109375 9.648437-9.417969 15.691406-22.007813 17.023437-35.53125.898438-9.164063 7.128907-16.96875 15.867188-19.878906 14.851562-4.953125 26.777344-15.445313 33.574219-29.546875 6.796875-14.105469 7.578125-29.96875 2.199219-44.671875-4.667969-12.75-16.925782-21.316407-30.507813-21.316407h-92.683594c2.511719-4.925781 4.582031-10.074218 6.179688-15.402343 4.699219 1.371093 9.578125 2.066406 14.585937 2.066406 17.5 0 33.898438-8.902344 43.5-23.414063 7.199219 2.53125 14.96875 3.460938 22.644532 2.683594 24.746093-2.488281 44.328124-22.285156 46.554687-47.074218.65625-7.28125-.167969-14.410157-2.449219-21.234376 10.832032-10.339843 16.671875-24.695312 16.082032-39.757812zm-188.136719 165.917969c-2.140625 1.359375-3.433594 3.714843-3.433594 6.25v24.398437c0 23.664063-19.253906 42.917969-42.917969 42.917969h-42.945312c-23.664063 0-42.917969-19.253906-42.917969-42.917969v-24.398437c0-2.535157-1.292969-4.894531-3.433594-6.25-22.757812-14.476563-36.34375-39.191407-36.34375-66.121094v-90.429687c0-41.136719 33.46875-74.605469 74.609375-74.605469h55.429688c43.171875 0 78.292968 35.121093 78.292968 78.292969v86.746093c0 16.402344-5.050781 31.984375-14.136718 44.929688-.292969.34375-.554688.714843-.78125 1.109375-5.710938 7.839844-12.925782 14.671875-21.421875 20.078125zm160.558593-135.734375c-3.585937 3.136718-4.847656 8.226562-3.136718 12.671875 2.0625 5.355469 2.84375 11.011719 2.320312 16.808593-1.59375 17.722657-15.589844 31.875-33.277344 33.65625-6.308593.632813-12.425781-.261718-18.1875-2.667968-5.253906-2.191406-11.363281-.15625-14.207031 4.734375-6.664062 11.464843-19.027343 18.585937-32.265625 18.585937-3.953125 0-7.785156-.613281-11.460937-1.800781.539062-4.066406.820312-8.195313.820312-12.375v-86.742187c0-5.503907-.480469-10.902344-1.402343-16.148438 7.046874-8.082031 17.34375-12.839844 28.136718-12.839844 4.542969 0 8.984375.8125 13.207032 2.414063 4.96875 1.886719 10.648437.007812 13.507812-4.464844 6.921875-10.816406 18.644531-17.230469 31.445312-17.230469.171876 0 .34375 0 .515626.003906 19.832031.265626 35.972656 15.988282 36.746093 35.789063.449219 11.351563-4.203125 22.140625-12.761719 29.605469zm0 0" fill="#ffffff"/><path d="m256 179.074219c21.230469 0 38.503906-17.269531 38.503906-38.5s-17.273437-38.5-38.503906-38.5-38.503906 17.269531-38.503906 38.5 17.273437 38.5 38.503906 38.5zm0-62.179688c13.058594 0 23.679688 10.621094 23.679688 23.679688 0 13.054687-10.621094 23.675781-23.679688 23.675781s-23.679688-10.621094-23.679688-23.675781c0-13.054688 10.625-23.679688 23.679688-23.679688zm0 0" fill="#ffffff"/><path d="m319.765625 178.304688c-11.398437-10.777344-29.441406-10.277344-40.226563 1.121093-2.722656 2.878907-10.785156 7.757813-23.714843 7.757813-11.945313 0-20.191407-4.125-23.625-7.660156-5.292969-5.449219-12.394531-8.511719-19.992188-8.625-.144531-.003907-.285156-.003907-.429687-.003907-7.441406 0-14.460938 2.847657-19.8125 8.042969-11.253906 10.929688-11.519532 28.980469-.585938 40.238281 15.378906 15.835938 38.867188 24.917969 64.445313 24.917969 25.597656 0 49.917969-9.554688 65.058593-25.558594 10.78125-11.398437 10.28125-29.445312-1.117187-40.230468zm-9.652344 30.042968c-12.390625 13.101563-32.6875 20.921875-54.292969 20.921875-21.59375 0-41.207031-7.441406-53.8125-20.421875-5.234374-5.394531-5.109374-14.039062.28125-19.277344 2.566407-2.488281 5.929688-3.851562 9.492188-3.851562.070312 0 .136719 0 .207031.003906 3.640625.050782 7.042969 1.519532 9.578125 4.132813 7.390625 7.605469 20.199219 12.152343 34.257813 12.152343 16.78125 0 28.816406-6.40625 34.484375-12.398437 5.164062-5.457031 13.808594-5.699219 19.273437-.535156 5.457031 5.167969 5.699219 13.8125.53125 19.273437zm0 0" fill="#ffffff"/><path d="m294.828125 193.886719c-8.492187 8.976562-23.078125 14.339843-39.007813 14.339843-15.703124 0-30.179687-5.25-38.714843-14.039062-2.851563-2.9375-7.542969-3.007812-10.480469-.15625-2.9375 2.855469-3.007812 7.546875-.152344 10.480469 11.269532 11.609375 29.71875 18.539062 49.351563 18.539062 19.921875 0 38.53125-7.097656 49.773437-18.980469 2.8125-2.972656 2.683594-7.664062-.289062-10.476562-2.976563-2.8125-7.667969-2.683594-10.480469.292969zm0 0" fill="#ffffff"/><path d="m212.285156 125.546875c0 8.324219-6.75 15.074219-15.074218 15.074219-8.324219 0-15.074219-6.75-15.074219-15.074219s6.75-15.074219 15.074219-15.074219c8.324218 0 15.074218 6.75 15.074218 15.074219zm0 0" fill="#ffffff"/><path d="m329.863281 125.546875c0 8.324219-6.75 15.074219-15.074219 15.074219-8.324218 0-15.074218-6.75-15.074218-15.074219s6.75-15.074219 15.074218-15.074219c8.324219 0 15.074219 6.75 15.074219 15.074219zm0 0" fill="#ffffff"/></g><g transform="matrix(0.07812514901161194 0 0 0.07812514901161194 242.5 67.5)" id="L1_447"><path d="m403.046875 90.273438c-.003906-.007813-.003906-.015626-.003906-.023438-.003907-.03125-.007813-.066406-.015625-.097656-.027344-.191406-.058594-.382813-.101563-.578125-.007812-.023438-.011719-.046875-.015625-.070313-.027344-.117187-.058594-.238281-.09375-.355468 0-.003907 0-.003907 0-.007813-.011718-.039063-.019531-.078125-.03125-.117187l-23.296875-76.472657c-2.285156-7.507812-9.09375-12.550781-16.941406-12.550781h-321.480469c-7.847656 0-14.65625 5.042969-16.941406 12.546875l-23.296875 76.476563c-.011719.042968-.019531.085937-.03125.128906-.003906.003906-.003906.007812-.007813.015625-.027343.101562-.054687.207031-.078124.3125-.007813.027343-.011719.050781-.015626.078125-.039062.175781-.074218.347656-.101562.519531-.003906.050781-.011719.097656-.019531.144531 0 .007813-.003907.019532-.003907.03125-.039062.304688-.066406.605469-.066406.90625-.003906.019532-.003906.035156-.003906.050782v.007812.070312 184.507813c0 9.761719 7.945312 17.707031 17.707031 17.707031h34.003907l46.417968 204.839844c1.035156 4.566406 3.785156 8.453125 7.742188 10.949219 2.835937 1.785156 6.042968 2.707031 9.3125 2.707031 1.296875 0 2.605468-.144531 3.90625-.441406l232.609375-52.710938c4.566406-1.035156 8.453125-3.785156 10.949219-7.742187 2.496093-3.960938 3.300781-8.652344 2.265624-13.21875l-32.71875-144.382813h52.707032c9.765625 0 17.707031-7.945312 17.707031-17.707031v-184.5c.007813-.335937-.019531-.679687-.0625-1.023437zm-384.835937 188.214843c-1.484376 0-2.691407-1.207031-2.691407-2.691406v-161.351563l15.996094 22.160157c5.230469 7.25 13.6875 11.578125 22.628906 11.578125h23.058594c4.148437 0 7.507813-3.363282 7.507813-7.507813 0-4.148437-3.363282-7.511719-7.507813-7.511719h-23.058594c-4.128906 0-8.035156-1.996093-10.453125-5.34375l-21.003906-29.097656h292.152344c4.148437 0 7.507812-3.363281 7.507812-7.507812 0-4.148438-3.359375-7.511719-7.507812-7.511719h-296.695313l20.34375-66.777344c.347657-1.140625 1.382813-1.90625 2.578125-1.90625h321.484375c1.191407 0 2.226563.765625 2.574219 1.90625l20.339844 66.777344h-35.960938c-4.144531 0-7.507812 3.363281-7.507812 7.511719 0 4.144531 3.363281 7.507812 7.507812 7.507812h31.421875l-21.003906 29.097656c-2.414063 3.347657-6.324219 5.34375-10.453125 5.34375h-53.105469l-1.855469-8.175781c-2.132812-9.421875-11.539062-15.351562-20.957031-13.214843l-232.613281 52.714843c-9.421875 2.136719-15.347656 11.539063-13.214844 20.960938l21.085938 93.039062zm332.5625 162.71875c.199218.878907-.117188 1.558594-.324219 1.886719s-.683594.910156-1.566407 1.105469l-232.609374 52.714843c-.882813.199219-1.5625-.117187-1.890626-.324218-.328124-.207032-.90625-.683594-1.105468-1.5625l-47.710938-210.535156c-.003906-.011719-.007812-.023438-.007812-.035157l-23.191406-102.328125c-.304688-1.34375.542968-2.6875 1.890624-2.992187l232.609376-52.714844c.1875-.042969.371093-.0625.554687-.0625 1.144531 0 2.175781.789063 2.441406 1.949219l36.074219 159.191406c.003906.011719.007812.023438.007812.035156zm37.320312-165.410156c0 1.484375-1.207031 2.691406-2.691406 2.691406h-56.109375l-29.527344-130.304687h49.703125c8.941406 0 17.398438-4.328125 22.628906-11.578125l15.996094-22.160157zm0 0" fill="#ffffff"/><path d="m296.519531 339.0625c-6.621093-29.210938-26.78125-52.964844-54.3125-64.3125-.332031-.628906-.714843-1.238281-1.183593-1.796875l-44.671876-53.011719c6.9375-7.941406 10.128907-18.972656 7.625-30.019531-4.15625-18.351563-22.472656-29.902344-40.828124-25.742187-18.355469 4.160156-29.90625 22.476562-25.746094 40.832031 2.503906 11.046875 10.140625 19.621093 19.820312 23.796875l-17.449218 67.085937c-.1875.710938-.269532 1.421875-.296876 2.136719-19.949218 22.105469-27.898437 52.230469-21.28125 81.441406 5.398438 23.816406 19.746094 44.105469 40.402344 57.128906 14.78125 9.320313 31.527344 14.121094 48.582032 14.121094 6.78125 0 13.609374-.757812 20.382812-2.292968 23.816406-5.398438 44.105469-19.746094 57.128906-40.402344 13.023438-20.660156 17.226563-45.148438 11.828125-68.964844zm-130.054687-160.238281c1.417968-.320313 2.832031-.472657 4.226562-.472657 8.730469 0 16.632813 6.027344 18.640625 14.890626 2.328125 10.277343-4.136719 20.535156-14.417969 22.867187-10.277343 2.324219-20.535156-4.140625-22.867187-14.417969-2.328125-10.277344 4.140625-20.535156 14.417969-22.867187zm5.558594 52.742187c2.054687-.082031 4.132812-.339844 6.210937-.8125s4.0625-1.132812 5.953125-1.945312l43.050781 51.089844c-2.96875 3.640624-11.394531 10.636718-34.28125 15.824218-22.890625 5.1875-33.507812 2.503906-37.753906.5zm99.964843 168.449219c-10.882812 17.265625-27.839843 29.257813-47.742187 33.765625-5.664063 1.285156-11.320313 1.902344-16.898438 1.898438-34.886718 0-66.480468-24.101563-74.507812-59.527344-5.351563-23.613282.695312-47.941406 16.1875-66.234375 4.566406 2.109375 11.199218 3.8125 20.75 3.8125 7.105468 0 15.828125-.941407 26.5-3.359375 25-5.667969 36.835937-14.019532 42.4375-20.777344 21.863281 9.828125 37.808594 29.171875 43.160156 52.785156 4.507812 19.90625 1 40.375-9.886719 57.636719zm0 0" fill="#ffffff"/><path d="m186.109375 356.035156c-1.664063-7.339844-8.964844-11.945312-16.304687-10.28125-7.34375 1.664063-11.945313 8.964844-10.28125 16.308594 1.664062 7.339844 8.964843 11.945312 16.304687 10.28125 7.34375-1.664062 11.945313-8.964844 10.28125-16.308594zm0 0" fill="#ffffff"/><path d="m251.140625 341.300781c-1.664063-7.34375-8.964844-11.945312-16.308594-10.28125-7.339843 1.664063-11.945312 8.964844-10.28125 16.304688 1.664063 7.34375 8.964844 11.945312 16.308594 10.285156 7.339844-1.664063 11.945313-8.964844 10.28125-16.308594zm0 0" fill="#ffffff"/><path d="m211.316406 416.378906c-14.546875 0-28.242187-8.042968-35.144531-21.367187-1.90625-3.683594-.464844-8.214844 3.214844-10.121094 3.683593-1.910156 8.214843-.46875 10.121093 3.214844 5.136719 9.917969 16.335938 15.121093 27.25 12.644531 10.910157-2.472656 18.777344-11.996094 19.132813-23.15625.132813-4.144531 3.574219-7.417969 7.746094-7.265625 4.144531.132813 7.398437 3.601563 7.265625 7.746094-.578125 17.992187-13.253906 33.335937-30.828125 37.320312-2.917969.664063-5.859375.984375-8.757813.984375zm0 0" fill="#ffffff"/></g><g transform="matrix(0.13206017017364502 -0.03538541495800018 0.03538541495800018 0.13206017017364502 132.25173950195312 149.45693969726562)" id="L1_448"><path d="m469.835938 398.753906c-2.152344-3.003906-5.105469-5.273437-8.449219-6.617187 5.988281-7.011719 9.515625-16.09375 9.515625-25.890625v-24.179688c0-9.65625-3.433594-18.820312-9.714844-26.058594 6.28125-7.238281 9.714844-16.402343 9.714844-26.058593v-24.179688c0-9.683593-3.449219-18.867187-9.761719-26.113281 6.3125-7.242188 9.761719-16.425781 9.761719-26.109375v-24.179687c0-10.054688-3.8125-19.414063-10.171875-26.53125 3.175781-1.3125 5.964843-3.484376 8.082031-6.375 3.660156-5.003907 4.679688-11.269532 2.800781-17.191407-27.703125-87.207031-115.519531-139.269531-234.90625-139.269531s-207.203125 52.0625-234.90625 139.269531c-1.878906 5.921875-.859375 12.1875 2.800781 17.191407 2.675782 3.660156 6.429688 6.164062 10.679688 7.238281-5.890625 6.988281-9.402344 15.945312-9.453125 25.457031l-.988281 18.335938c-.222656 4.125 2.941406 7.648437 7.066406 7.871093.136719.007813.273438.011719.40625.011719 3.949219 0 7.25-3.089844 7.460938-7.078125l1-18.527344c.003906-.132812.007812-.265625.007812-.402343 0-10.9375 7.316406-20.738282 17.792969-23.835938.90625-.265625 1.714843-.695312 2.421875-1.238281h5.121094c20.128906 36.273437 57.9375 58.617187 99.773437 58.617187 35.078125 0 67.328125-15.71875 88.703125-42.191406l80.804688 40.167969c1.828124.90625 3.832031 1.359375 5.839843 1.359375 2.003907 0 4.007813-.453125 5.835938-1.363282l111.25-55.292968c10.335937 3.136718 17.625 12.792968 17.625 23.78125v24.179687c0 6.535157-2.519531 12.707031-7.101563 17.382813-4.789062 4.894531-4.789062 12.558594.003906 17.457031 4.578126 4.671875 7.097657 10.84375 7.097657 17.378906v24.179688c0 6.519531-2.507813 12.683593-7.0625 17.347656-4.769531 4.886719-4.769531 12.539063-.003907 17.425781 4.554688 4.664063 7.0625 10.828125 7.0625 17.34375v24.179688c0 11.519531-7.804687 21.453125-18.980468 24.15625-.363282.089844-.710938.210937-1.046875.347656h-5.152344c-3.867187-18.804688-20.6875-33.101562-40.488281-33.101562-10.972656 0-21.207032 4.246093-28.820313 11.6875-7.613281-7.441407-17.84375-11.6875-28.820312-11.6875-10.976563 0-21.207031 4.246093-28.820313 11.683593-7.613281-7.4375-17.847656-11.683593-28.820312-11.683593-19.800782 0-36.621094 14.296874-40.488282 33.101562h-193.433593c-.261719-.089844-.53125-.167969-.808594-.230469-11.289063-2.480469-19.480469-12.691406-19.480469-24.273437v-24.179688c0-6.515625 2.507813-12.679687 7.0625-17.347656 4.765625-4.882812 4.765625-12.535156 0-17.421875-4.554687-4.664063-7.0625-10.828125-7.0625-17.347656v-24.179688c0-7.894531 3.816406-15.398437 10.207032-20.074219 3.332031-2.4375 4.058593-7.117187 1.621093-10.449218-2.4375-3.335938-7.117187-4.058594-10.449219-1.621094-10.230468 7.476562-16.335937 19.496094-16.335937 32.144531v24.179688c0 9.660156 3.433594 18.824219 9.71875 26.0625-6.285156 7.234375-9.71875 16.398437-9.71875 26.054687v24.179688c0 9.328125 3.324219 18.101562 8.925781 25.023437-4.457031 1.054688-8.457031 3.6875-11.175781 7.484375-3.5898438 5.011719-4.546875 11.488282-2.5625 17.320313 13.449219 39.566406 42.382813 65.863281 88.449219 80.390625 43.421875 13.6875 98.800781 15.535156 147.242187 15.535156 40.3125 0 86.898438-1.199219 126.75-10.078125 4.03125-.898437 6.574219-4.894531 5.675781-8.925781-.898437-4.03125-4.898437-6.570313-8.925781-5.671875-38.441406 8.566406-84 9.71875-123.5 9.71875-47.304687 0-101.257812-1.761719-142.746093-14.847657-41.777344-13.171874-66.8125-35.710937-78.785157-70.933593-.605469-1.777344.09375-3.144531.5625-3.800781s1.539063-1.753907 3.414063-1.753907h435.109375c1.875 0 2.945312 1.097657 3.414062 1.753907s1.167969 2.023437.5625 3.800781c-10.375 30.515625-31.234375 51.933593-63.769531 65.484375-3.816406 1.585937-5.617188 5.964844-4.03125 9.777344s5.964844 5.617187 9.777344 4.027343c36.734375-15.292969 60.347656-39.65625 72.183594-74.476562 1.984374-5.835938 1.027343-12.308594-2.5625-17.320313zm-453.777344-254.953125c25.628906-80.679687 108.113281-128.84375 220.648437-128.84375 112.535157 0 195.019531 48.164063 220.648438 128.84375.597656 1.878907-.230469 3.304688-.613281 3.832031-.464844.636719-1.523438 1.703126-3.363282 1.703126h-433.339844c-1.84375 0-2.898437-1.066407-3.363281-1.703126-.386719-.527343-1.214843-1.953124-.617187-3.832031zm164.472656 20.492188c-10.289062 6.40625-22.265625 9.925781-34.640625 9.925781-12.390625 0-24.367187-3.519531-34.65625-9.925781zm-34.640625 43.660156c-33.472656 0-63.96875-16.457031-82.246094-43.660156h24.050781c15.132813 15.851562 36.144532 24.886719 58.195313 24.886719 22.023437 0 43.050781-9.035157 58.1875-24.886719h24.050781c-.515625.769531-1.042968 1.53125-1.578125 2.28125-.179687.226562-.351562.457031-.503906.703125-18.472656 25.417968-47.9375 40.675781-80.15625 40.675781zm175.347656-.867187-77.945312-38.742188c.8125-1.332031 1.601562-2.679688 2.363281-4.050781h161.675781zm-46.242187 165.519531c9.214844 0 17.609375 4.6875 22.457031 12.542969 1.363281 2.207031 3.769531 3.550781 6.363281 3.550781s5-1.34375 6.363282-3.550781c4.847656-7.851563 13.246093-12.542969 22.457031-12.542969 9.210937 0 17.605469 4.6875 22.457031 12.542969 1.363281 2.207031 3.769531 3.550781 6.363281 3.550781s5-1.34375 6.363281-3.550781c4.851563-7.851563 13.246094-12.542969 22.457032-12.542969 11.570312 0 21.550781 7.644531 25.042968 18.144531h-165.367187c3.492187-10.5 13.476563-18.144531 25.042969-18.144531zm0 0" fill="#ffffff"/><path d="m48.816406 317.824219c-1.421875 6.050781 1.367188 11.976562 6.933594 14.742187l93.476562 46.464844c1.828126.90625 3.832032 1.359375 5.839844 1.359375 2.003906 0 4.007813-.453125 5.835938-1.363281l91.140625-45.300782c8.632812 2.054688 17.53125 3.125 26.523437 3.125 27.183594 0 53.511719-9.695312 74.128906-27.292968 20.460938-17.464844 34.128907-41.660156 38.484376-68.128906.355468-2.164063-.257813-4.378907-1.679688-6.050782-1.421875-1.675781-3.503906-2.640625-5.699219-2.640625h-34.414062c-3.441407 0-6.441407 2.355469-7.261719 5.699219-7.179688 29.273438-33.3125 49.71875-63.558594 49.71875-4.128906 0-7.476562 3.351562-7.476562 7.480469 0 4.128906 3.347656 7.476562 7.476562 7.476562 35.160156 0 65.800782-22.503906 76.464844-55.417969h19.5625c-11.15625 43.484376-50.222656 74.199219-96.027344 74.199219-45.808594 0-84.875-30.714843-96.03125-74.199219h19.570313c6.296875 19.332032 19.84375 35.734376 37.839843 45.582032 3.625 1.980468 8.167969.652344 10.152344-2.972656 1.980469-3.621094.648438-8.167969-2.972656-10.148438-16.070312-8.792969-27.777344-24-32.121094-41.71875-.820312-3.347656-3.816406-5.699219-7.261718-5.699219h-34.410157c-2.195312 0-4.28125.964844-5.699219 2.636719-1.421874 1.675781-2.035156 3.886719-1.679687 6.054688 4.199219 25.554687 17.101563 48.972656 36.394531 66.273437h-140.761718c-6.214844 0-11.347657 4.066406-12.769532 10.121094zm173.507813 4.835937c.316406 0 .628906-.027344.9375-.0625 2.867187 1.582032 5.796875 3.039063 8.78125 4.371094l-76.976563 38.261719-85.640625-42.570313zm0 0" fill="#ffffff"/><path d="m104.996094 116.550781c1.460937 1.460938 3.375 2.1875 5.289062 2.1875 1.910156 0 3.828125-.726562 5.285156-2.1875 2.921876-2.921875 2.921876-7.65625 0-10.578125l-17.996093-17.996094c-2.921875-2.921874-7.65625-2.921874-10.578125 0-2.917969 2.917969-2.917969 7.652344 0 10.574219zm0 0" fill="#ffffff"/><path d="m192.269531 88.539062c1.460938 1.460938 3.375 2.191407 5.285157 2.191407 1.914062 0 3.828124-.730469 5.289062-2.191407 2.921875-2.917968 2.921875-7.652343 0-10.574218l-18-18c-2.917969-2.917969-7.65625-2.917969-10.574219 0-2.921875 2.921875-2.921875 7.65625 0 10.578125zm0 0" fill="#ffffff"/><path d="m370.777344 106.539062c1.460937 1.460938 3.375 2.191407 5.289062 2.191407 1.914063 0 3.828125-.730469 5.289063-2.191407 2.917969-2.921874 2.917969-7.65625 0-10.578124l-18-17.996094c-2.917969-2.917969-7.65625-2.917969-10.574219 0-2.921875 2.921875-2.921875 7.652344 0 10.574218zm0 0" fill="#ffffff"/><path d="m280.535156 63c1.914063 0 3.828125-.730469 5.289063-2.191406l17.996093-17.996094c2.921876-2.921875 2.921876-7.65625 0-10.578125-2.917968-2.917969-7.65625-2.917969-10.574218.003906l-18 17.996094c-2.917969 2.921875-2.917969 7.65625 0 10.578125 1.464844 1.457031 3.375 2.1875 5.289062 2.1875zm0 0" fill="#ffffff"/><path d="m233.359375 128.132812h25.453125c4.132812 0 7.476562-3.347656 7.476562-7.480468 0-4.128906-3.347656-7.476563-7.476562-7.476563h-25.453125c-4.128906 0-7.476563 3.347657-7.476563 7.476563 0 4.132812 3.347657 7.480468 7.476563 7.480468zm0 0" fill="#ffffff"/></g><g transform="matrix(0.16979165375232697 0.04549553617835045 -0.04549553617835045 0.16979165375232697 -31.97650909423828 -54.50732421875)" id="L1_449"><path d="m512 251.523438c0-15.683594-6.1875-30.34375-17.425781-41.28125l-10.972657-10.6875 5.222657-14.28125c5.398437-14.75 4.617187-30.667969-2.203125-44.816407-6.820313-14.148437-18.785156-24.679687-33.6875-29.644531l-14.433594-4.808594-1.496094-15.214844c-2.421875-24.625-20.238281-44.921874-44.332031-50.507812-4.007813-.929688-7.996094 1.566406-8.921875 5.566406-.929688 4 1.5625 7.992188 5.5625 8.921875 17.878906 4.140625 31.09375 19.199219 32.890625 37.472657l1.96875 20.015624c.289063 2.921876 2.265625 5.402344 5.050781 6.328126l19.007813 6.335937c11.054687 3.683594 19.929687 11.496094 24.992187 21.992187 5.058594 10.5 5.640625 22.304688 1.636719 33.25l-6.882813 18.804688c-1.007812 2.75-.304687 5.839844 1.796876 7.882812l14.425781 14.042969c8.335937 8.117188 12.925781 18.996094 12.925781 30.628907 0 11.636718-4.589844 22.511718-12.925781 30.628906l-14.425781 14.042968c-2.101563 2.046876-2.804688 5.132813-1.796876 7.882813l6.882813 18.804687c4.003906 10.945313 3.421875 22.753907-1.636719 33.25-5.0625 10.5-13.9375 18.308594-24.992187 21.992188l-19.007813 6.335938c-2.785156.929687-4.761718 3.40625-5.050781 6.328124l-1.96875 20.015626c-2.460937 25.007812-22.253906 40.714843-48.105469 38.203124-13.480468-1.308593-26.800781-5.644531-39.65625-12.878906.015625-.542968.042969-1.082031.042969-1.625v-4.730468c4.859375 1.203124 9.859375 1.828124 14.960937 1.828124 34.367188 0 62.324219-27.960937 62.324219-62.328124 0-24.777344-14.652343-47.015626-36.976562-56.945313v-19.453125c4.59375-6 6.566406-13.6875 5.238281-21.425781l-2.664062-15.542969 11.292968-11.007812c7.59375-7.398438 10.273438-18.261719 6.996094-28.347657-3.277344-10.082031-11.828125-17.296875-22.320312-18.820312l-15.609376-2.269531-6.980468-14.140626c-4.691406-9.507812-14.191406-15.414062-24.796875-15.414062-.492188 0-.980469.023438-1.472657.050781-20.65625-13.558593-44.621093-20.734375-69.46875-20.734375-24.863281 0-48.8125 7.171875-69.472656 20.734375-.488281-.027343-.976562-.050781-1.472656-.050781-10.601562 0-20.101562 5.90625-24.796875 15.414062l-6.980469 14.140626-15.605468 2.269531c-10.492188 1.523437-19.046876 8.734375-22.324219 18.820312-3.273438 10.085938-.59375 20.949219 7 28.347657l11.292969 11.007812-2.667969 15.546875c-1.328125 7.734375.648437 15.421875 5.242187 21.421875v19.652344c-22.058594 10.027344-36.539062 32.199218-36.539062 56.746094 0 34.367187 27.957031 62.328124 62.324218 62.328124 4.945313 0 9.800782-.589843 14.523438-1.71875v4.621094c0 31.945313 25.988281 57.929688 57.933594 57.929688h43.085937c25.976563 0 48.015625-17.1875 55.34375-40.789063 13.207031 6.734375 26.878907 10.816407 40.761719 12.167969 2.292969.222656 4.554688.332031 6.777344.332031 30.785156 0 54.527344-20.941406 57.570312-51.882812l1.496094-15.214844 14.433594-4.808594c14.902344-4.96875 26.867187-15.496093 33.6875-29.644531 6.820312-14.148438 7.601562-30.066406 2.203125-44.816406l-5.222657-14.28125 10.972657-10.6875c11.238281-10.9375 17.425781-25.601563 17.425781-41.285156zm-361.90625 62.875v-11.554688c2.308594.621094 4.691406.953125 7.125.953125 4.449219 0 8.90625-1.105469 12.886719-3.195313l13.960937-7.339843 13.957032 7.335937c4.082031 2.148438 8.5 3.207032 12.894531 3.207032 5.707031 0 11.382812-1.789063 16.230469-5.308594 7.421874-5.394532 11.570312-13.882813 11.390624-22.84375 4.625-2.605469 10.417969-4.074219 16.46875-4.074219 6.050782 0 11.84375 1.46875 16.46875 4.074219-.175781 8.960937 3.96875 17.449218 11.394532 22.84375 4.773437 3.46875 10.386718 5.304687 16.234375 5.304687 4.449219 0 8.90625-1.109375 12.886719-3.199219l13.957031-7.339843 13.960937 7.339843c4.082032 2.144532 8.496094 3.207032 12.894532 3.207032 2.398437 0 4.789062-.335938 7.117187-.964844v11.554688c0 41.394531-33.675781 75.066406-75.066406 75.066406h-59.695313c-41.390625 0-75.066406-33.675782-75.066406-75.066406zm85.386719-58.492188 11.292969-11.007812c4.777343-4.652344 7.605468-10.679688 8.234374-17.015626.632813 6.335938 3.460938 12.363282 8.234376 17.015626l11.292968 11.007812-.746094 4.355469c-5.714843-2.320313-12.109374-3.558594-18.777343-3.558594-6.671875 0-13.070313 1.234375-18.78125 3.554687zm161.417969 113.367188c0 26.167968-21.285157 47.457031-47.453126 47.457031-5.148437 0-10.164062-.8125-14.960937-2.410157v-22.902343c0-.671875-.019531-1.347657-.042969-2.023438 20.582032-13.652343 35.242188-35.539062 39.25-60.925781 14.179688 8.429688 23.207032 23.835938 23.207032 40.804688zm-59.484376-181.371094 8.707032 17.648437c1.082031 2.195313 3.179687 3.714844 5.601562 4.066407l19.472656 2.832031c4.851563.703125 8.804688 4.035156 10.320313 8.695312 1.511719 4.664063.273437 9.683594-3.238281 13.105469l-14.089844 13.734375c-1.753906 1.707031-2.550781 4.171875-2.136719 6.582031l3.324219 19.398438c.828125 4.828125-1.117188 9.621094-5.082031 12.5-3.964844 2.878906-9.125 3.253906-13.460938.972656l-17.421875-9.160156c-2.167968-1.136719-4.753906-1.136719-6.921875 0l-17.417969 9.160156c-1.855468.976562-3.917968 1.488281-5.964843 1.488281-2.6875 0-5.277344-.851562-7.496094-2.460937-3.964844-2.878906-5.910156-7.671875-5.082031-12.5l.117187-.679688c.003907-.03125.007813-.0625.015625-.09375l3.191406-18.625c.414063-2.410156-.382812-4.875-2.136718-6.582031l-14.09375-13.734375c-3.507813-3.421875-4.746094-8.441406-3.234375-13.101562 1.515625-4.664063 5.46875-7.996094 10.320312-8.699219l19.472657-2.832031c2.425781-.351563 4.515624-1.871094 5.601562-4.066407l8.707031-17.648437c2.167969-4.394532 6.5625-7.125 11.460938-7.125 4.902343 0 9.292969 2.730468 11.464843 7.125zm-82.40625-27.804688c18.429688 0 36.304688 4.457032 52.359376 12.972656-2.515626 2.289063-4.640626 5.0625-6.214844 8.25l-6.976563 14.140626-15.605469 2.269531c-10.496093 1.523437-19.046874 8.734375-22.324218 18.820312-.636719 1.957031-1.042969 3.945313-1.238282 5.929688-.195312-1.984375-.597656-3.972657-1.234374-5.929688-3.277344-10.082031-11.832032-17.296875-22.324219-18.820312l-15.605469-2.269531-6.980469-14.140626c-1.574219-3.1875-3.699219-5.960937-6.214843-8.25 16.054687-8.515624 33.925781-12.972656 52.359374-12.972656zm-123.273437 74.148438c-3.507813-3.417969-4.746094-8.441406-3.230469-13.101563 1.511719-4.660156 5.464844-7.992187 10.316406-8.695312l19.476563-2.832031c2.421875-.351563 4.515625-1.871094 5.597656-4.066407l8.710938-17.648437c2.167969-4.394532 6.558593-7.125 11.460937-7.125s9.292969 2.730468 11.460938 7.125l8.707031 17.648437c1.085937 2.195313 3.179687 3.714844 5.601563 4.066407l19.476562 2.832031c4.847656.703125 8.800781 4.035156 10.316406 8.695312 1.515625 4.664063.273438 9.683594-3.234375 13.101563l-14.09375 13.738281c-1.75 1.707031-2.550781 4.167969-2.136719 6.582031l3.195313 18.632813c.003906.027343.007813.054687.011719.078125l.117187.6875c.828125 4.828125-1.117187 9.617187-5.082031 12.5-3.964844 2.878906-9.125 3.253906-13.460938.972656l-17.421874-9.160156c-2.164063-1.136719-4.753907-1.136719-6.917969 0l-17.421875 9.160156c-1.851563.972656-3.917969 1.488281-5.964844 1.488281-2.683594 0-5.277344-.851562-7.492188-2.460937-.65625-.476563-1.25-1.007813-1.789062-1.578125-.011719-.011719-.023438-.023438-.03125-.03125-2.714844-2.886719-3.953125-6.875-3.265625-10.890625l3.328125-19.398438c.414062-2.410156-.386719-4.875-2.140625-6.582031zm29.273437 182.480468c-26.164062 0-47.453124-21.285156-47.453124-47.453124 0-16.761719 8.871093-32.066407 22.8125-40.558594 4.0625 25.28125 18.691406 47.070312 39.203124 60.675781-.019531.675781-.039062 1.355469-.039062 2.023437v23.050782c-4.664062 1.503906-9.53125 2.261718-14.523438 2.261718zm115.542969 60.835938h-43.085937c-23.742188 0-43.058594-19.316406-43.058594-43.058594v-14.914062c0-.046875 0-.09375 0-.140625v-22.101563c10.699219 4.5 22.441406 6.992188 34.757812 6.992188h59.691407c12.316406 0 24.058593-2.492188 34.757812-6.992188v21.890625.019531 15.246094c0 23.742188-19.316406 43.058594-43.0625 43.058594zm0 0" fill="#fbfff7"/><path d="m51.460938 129.875c1.300781 0 2.617187-.34375 3.8125-1.058594 2.664062-1.59375 5.519531-2.902344 8.496093-3.894531l19.007813-6.335937c2.785156-.925782 4.761718-3.40625 5.046875-6.328126l1.972656-20.015624c1.136719-11.585938 6.777344-21.964844 15.875-29.226563s20.46875-10.457031 32.015625-9l19.949219 2.519531c2.90625.371094 5.757812-1.007812 7.28125-3.511718l10.421875-17.109376c6.058594-9.953124 15.652344-16.859374 27.015625-19.449218 11.359375-2.585938 23-.515625 32.773437 5.828125l16.820313 10.925781c2.464843 1.597656 5.636719 1.597656 8.101562 0l16.820313-10.925781c9.773437-6.34375 21.414062-8.414063 32.773437-5.828125 11.363281 2.589844 20.957031 9.496094 27.015625 19.449218l10.421875 17.113282c2.136719 3.507812 6.710938 4.617187 10.21875 2.484375 3.507813-2.136719 4.621094-6.710938 2.484375-10.21875l-10.421875-17.113281c-8.167969-13.414063-21.101562-22.722657-36.417969-26.210938-15.316406-3.488281-31-.699219-44.171874 7.855469l-12.773438 8.289062-12.773438-8.292969c-13.171874-8.554687-28.859374-11.34375-44.175781-7.855468-15.3125 3.488281-28.246093 12.796875-36.414062 26.210937l-7.914063 13-15.167968-1.914062c-15.570313-1.96875-30.898438 2.34375-43.160157 12.128906-12.261719 9.789063-19.863281 23.78125-21.398437 39.394531l-1.5 15.21875-14.429688 4.808594c-3.996094 1.332031-7.84375 3.09375-11.429687 5.242188-3.527344 2.109374-4.671875 6.675781-2.5625 10.199218 1.394531 2.328125 3.859375 3.621094 6.386719 3.621094zm0 0" fill="#fbfff7"/><path d="m148.683594 447.480469c-3.515625.730469-7.09375 1.242187-10.632813 1.515625-24.765625 1.917968-45.960937-14.867188-48.253906-38.191406l-1.972656-20.015626c-.285157-2.917968-2.261719-5.398437-5.046875-6.328124l-19.007813-6.332032c-11.054687-3.6875-19.929687-11.496094-24.992187-21.996094-5.058594-10.496093-5.640625-22.304687-1.636719-33.246093l6.882813-18.804688c1.003906-2.753906.300781-5.839843-1.796876-7.882812l-14.425781-14.046875c-8.335937-8.117188-12.929687-18.992188-12.929687-30.628906 0-11.632813 4.59375-22.511719 12.929687-30.628907l14.425781-14.042969c2.097657-2.042968 2.800782-5.132812 1.796876-7.882812l-6.882813-18.804688c-3.175781-8.679687-3.476563-17.929687-.871094-26.753906 1.164063-3.9375-1.085937-8.074218-5.023437-9.238281-3.941406-1.164063-8.074219 1.085937-9.238282 5.027344-3.515624 11.90625-3.113281 24.378906 1.164063 36.074219l5.226563 14.28125-10.972657 10.6875c-11.238281 10.9375-17.425781 25.601562-17.425781 41.28125 0 15.683593 6.1875 30.347656 17.425781 41.285156l10.972657 10.683594-5.222657 14.28125c-5.398437 14.753906-4.617187 30.667968 2.207031 44.820312 6.816407 14.148438 18.78125 24.675781 33.683594 29.644531l14.429688 4.808594 1.5 15.214844c2.933594 29.839843 28.46875 51.753906 59.1875 51.753906 1.652344 0 3.328125-.0625 5.007812-.191406 4.175782-.320313 8.390625-.921875 12.53125-1.785157 4.019532-.839843 6.597656-4.777343 5.761719-8.800781-.839844-4.019531-4.78125-6.597656-8.800781-5.757812zm0 0" fill="#fbfff7"/><path d="m255.007812 371.296875c32.636719 0 46.675782-24 49.628907-36.929687.007812-.039063.019531-.082032.027343-.121094.011719-.046875.027344-.097656.035157-.148438.007812-.03125.007812-.058594.015625-.089844.070312-.347656.121094-.703124.144531-1.0625 0-.011718 0-.019531 0-.027343.019531-.347657.007813-.703125-.023437-1.058594-.007813-.074219-.015626-.152344-.023438-.226563-.011719-.089843-.011719-.175781-.027344-.261718-.042968-.265625-.097656-.523438-.164062-.777344-.003906-.011719-.007813-.019531-.011719-.03125-.09375-.347656-.214844-.679688-.355469-1.003906-.011718-.03125-.019531-.0625-.03125-.089844-2.0625-4.605469-13.191406-27.566406-29.953125-27.566406-7.117187 0-13.882812 2.457031-19.261719 6.816406-5.378906-4.359375-12.144531-6.816406-19.261718-6.816406-16.761719 0-27.890625 22.960937-29.953125 27.5625-.011719.03125-.019531.0625-.03125.09375-.140625.320312-.257813.648437-.355469.992187-.003906.015625-.007812.03125-.011719.042969-.066406.253906-.121093.511719-.164062.773438-.011719.085937-.015625.171874-.027344.257812-.007813.078125-.015625.160156-.023437.242188-.03125.351562-.042969.699218-.023438 1.046874 0 .011719.003906.027344.003906.039063.019532.355469.074219.703125.144532 1.046875.003906.035156.003906.066406.011718.097656.011719.050782.027344.105469.035156.15625.011719.035156.019532.070313.027344.105469 2.949219 12.933594 16.992188 36.9375 49.628906 36.9375zm0-14.871094c-16.058593 0-25.046874-7.5625-29.914062-14.457031l13.617188 2.105469c5.40625.839843 10.851562 1.257812 16.296874 1.257812 5.445313 0 10.890626-.417969 16.296876-1.257812l13.613281-2.105469c-4.867188 6.898438-13.855469 14.457031-29.910157 14.457031zm-19.257812-39.652343c5.257812 0 10.148438 2.617187 13.082031 6.996093 1.378907 2.058594 3.695313 3.296875 6.175781 3.296875 2.480469 0 4.800782-1.238281 6.179688-3.296875 2.933594-4.378906 7.824219-6.996093 13.082031-6.996093 3.300781 0 7.742188 4.664062 11.40625 10.027343l-16.644531 2.578125c-9.304688 1.4375-18.742188 1.4375-28.046875 0l-16.640625-2.578125c3.664062-5.363281 8.105469-10.027343 11.40625-10.027343zm0 0" fill="#fbfff7"/><path d="m156.058594 254.554688-2.664063 15.511718c-.476562 2.789063.671875 5.609375 2.960938 7.273438 2.289062 1.664062 5.324219 1.882812 7.828125.566406l13.933594-7.324219c3.652343-1.921875 8.238281-1.921875 11.894531 0l13.933593 7.324219c1.085938.570312 2.277344.855469 3.457032.855469 1.542968 0 3.078125-.480469 4.375-1.421875 2.289062-1.664063 3.433594-4.484375 2.957031-7.273438l-2.660156-15.511718c-.710938-4.148438.660156-8.375 3.671875-11.3125l11.273437-10.988282c2.027344-1.976562 2.757813-4.929687 1.882813-7.625-.875-2.691406-3.203125-4.652344-6.003906-5.058594l-15.578126-2.265624c-4.164062-.601563-7.757812-3.214844-9.621093-6.992188l-6.96875-14.113281c-1.25-2.539063-3.835938-4.144531-6.667969-4.144531-2.828125 0-5.414062 1.605468-6.667969 4.144531l-6.964843 14.117187c-1.863282 3.773438-5.457032 6.386719-9.625 6.988282l-15.574219 2.265624c-2.800781.40625-5.128907 2.367188-6.003907 5.0625-.875 2.691407-.144531 5.644532 1.882813 7.621094l11.269531 10.988282c3.015625 2.9375 4.390625 7.164062 3.679688 11.3125zm6.886718-22.53125c9.007813-1.308594 16.792969-6.960938 20.824219-15.125l.296875-.605469.296875.605469c4.03125 8.164062 11.8125 13.820312 20.820313 15.125l.667968.097656-.484374.472656c-6.515626 6.355469-9.488282 15.503906-7.949219 24.472656l.113281.664063-.597656-.3125c-3.953125-2.078125-8.402344-3.175781-12.867188-3.175781s-8.914062 1.097656-12.867187 3.175781l-.59375.3125.113281-.660157c1.539062-8.972656-1.433594-18.121093-7.953125-24.476562l-.484375-.472656zm0 0" fill="#fbfff7"/><path d="m319.285156 196.199219-6.96875 14.117187c-1.863281 3.773438-5.457031 6.386719-9.625 6.988282l-15.574218 2.265624c-2.800782.40625-5.128907 2.367188-6.003907 5.0625-.871093 2.691407-.144531 5.644532 1.882813 7.621094l11.269531 10.988282c3.015625 2.9375 4.390625 7.164062 3.679687 11.3125l-2.664062 15.511718c-.476562 2.789063.667969 5.609375 2.957031 7.273438 1.296875.941406 2.832031 1.421875 4.375 1.421875 1.183594 0 2.371094-.285157 3.457031-.855469l13.933594-7.324219c3.65625-1.921875 8.242188-1.921875 11.894532 0l13.933593 7.324219c2.507813 1.316406 5.542969 1.097656 7.832031-.566406 2.289063-1.664063 3.4375-4.484375 2.957032-7.273438l-2.660156-15.511718c-.710938-4.148438.660156-8.375 3.675781-11.3125l11.269531-10.988282c2.027344-1.976562 2.757812-4.929687 1.882812-7.625-.875-2.691406-3.203124-4.652344-6.003906-5.058594l-15.578125-2.265624c-4.160156-.601563-7.757812-3.21875-9.621093-6.992188l-6.96875-14.113281c-1.25-2.539063-3.835938-4.144531-6.667969-4.144531-2.828125 0-5.414063 1.605468-6.664063 4.144531zm27.785156 35.824219.667969.097656-.484375.46875c-6.519531 6.355468-9.492187 15.503906-7.949218 24.476562l.109374.664063-.59375-.3125c-3.953124-2.078125-8.402343-3.175781-12.867187-3.175781-4.46875 0-8.917969 1.097656-12.867187 3.175781l-.597657.3125.113281-.664063c1.539063-8.972656-1.433593-18.125-7.953124-24.476562l-.484376-.472656.667969-.09375c9.007813-1.308594 16.792969-6.964844 20.820313-15.128907l.300781-.601562.296875.601562c4.027344 8.164063 11.8125 13.820313 20.820312 15.128907zm0 0" fill="#fbfff7"/></g><g transform="matrix(0.07812495529651642 0 0 0.07812495529651642 155 330)" id="L1_450"><path d="m361.132812 350.84375c-1.746093-3.84375-6.277343-5.542969-10.121093-3.796875-3.839844 1.746094-5.539063 6.277344-3.792969 10.117187l39.546875 87.042969c.5 1.097657.4375 2.347657-.160156 3.34375-6.957031 11.53125-38.597657 49.164063-153.691407 49.164063s-146.734374-37.632813-153.6875-49.164063c-.601562-.996093-.660156-2.246093-.164062-3.34375l78.859375-173.5625c1.746094-3.84375.042969-8.375-3.796875-10.117187-3.847656-1.746094-8.375-.046875-10.117188 3.796875l-78.859374 173.5625c-2.582032 5.683593-2.214844 12.246093.988281 17.554687 10.253906 17.007813 47.035156 56.558594 166.777343 56.558594 119.738282 0 156.523438-39.550781 166.777344-56.558594 3.203125-5.308594 3.570313-11.871094.988282-17.554687zm0 0" fill="#ffffff"/><path d="m78.871094 244.574219c8.777344-8.667969 14.164062-19.96875 15.503906-32.28125 12.28125-1.335938 23.554688-6.699219 32.207031-15.429688 21.015625-21.1875 20.941407-55.597656-.160156-76.699219-2.988281-2.984374-7.824219-2.984374-10.808594 0-2.984375 2.984376-2.984375 7.820313 0 10.804688 15.167969 15.171875 15.222657 39.902344.117188 55.132812-5.875 5.925782-13.472657 9.675782-21.804688 10.84375-1.914062-11.328124-7.292969-21.941406-15.40625-30.050781-8.675781-8.671875-19.46875-19.460937-34.257812-19.652343-.289063.003906-.605469.011718-.902344.042968-7.429687.765625-13.367187 6.71875-14.121094 14.148438-.027343.289062-.042969.578125-.039062.871094.191406 14.578124 10.574219 24.953124 19.785156 34.15625 8.105469 8.101562 18.714844 13.472656 30.042969 15.382812-1.171875 8.355469-4.941406 15.972656-10.898438 21.863281-15.230468 15.050781-39.9375 14.972657-55.082031-.167969-2.984375-2.984374-7.824219-2.984374-10.808594 0-2.984375 2.984376-2.984375 7.820313 0 10.804688 10.574219 10.578125 24.503907 15.871094 38.4375 15.867188 13.820313 0 27.644531-5.207032 38.195313-15.636719zm-19.136719-58.980469c-7.578125-7.570312-14.75-14.734375-15.226563-22.824219.050782-.09375.128907-.171875.222657-.222656 8.308593.484375 15.765625 7.9375 22.984375 15.152344 5.042968 5.042969 8.625 11.429687 10.410156 18.34375-6.917969-1.789063-13.316406-5.378907-18.390625-10.449219zm0 0" fill="#ffffff"/><path d="m383.460938 125.585938c17.582031 0 31.882812-14.300782 31.882812-31.882813s-14.300781-31.882813-31.882812-31.882813c-17.582032 0-31.882813 14.300782-31.882813 31.882813s14.300781 31.882813 31.882813 31.882813zm0-48.480469c9.152343 0 16.597656 7.445312 16.597656 16.597656s-7.445313 16.597656-16.597656 16.597656c-9.152344 0-16.601563-7.445312-16.601563-16.597656s7.449219-16.597656 16.601563-16.597656zm0 0" fill="#ffffff"/><path d="m75.011719 342.976562c0-15.300781-12.449219-27.753906-27.753907-27.753906-15.304687 0-27.753906 12.453125-27.753906 27.753906 0 15.304688 12.449219 27.757813 27.753906 27.757813 15.304688 0 27.753907-12.453125 27.753907-27.757813zm-27.753907 12.472657c-6.875 0-12.472656-5.59375-12.472656-12.472657 0-6.875 5.597656-12.46875 12.472656-12.46875s12.472657 5.59375 12.472657 12.46875c0 6.878907-5.59375 12.472657-12.472657 12.472657zm0 0" fill="#ffffff"/><path d="m48.117188 114.933594c2.792968 2.792968 6.5 4.328125 10.449218 4.328125 3.945313 0 7.65625-1.535157 10.445313-4.328125l25.222656-25.21875c5.757813-5.757813 5.757813-15.132813 0-20.890625l-25.222656-25.222657c-5.761719-5.761718-15.132813-5.757812-20.894531 0l-25.21875 25.222657c-5.757813 5.757812-5.757813 15.132812 0 20.890625zm10.449218-60.164063 24.496094 24.5-24.496094 24.496094-24.5-24.496094zm0 0" fill="#ffffff"/><path d="m160.246094 104.492188c3.640625 8.789062 12.109375 14.167968 21.636718 13.671874 1.964844-.101562 3.839844.613282 5.238282 2.015626 1.402344 1.402343 2.117187 3.261718 2.015625 5.238281-.398438 7.785156 3.132812 14.882812 9.253906 19.203125l-38.808594 85.417968c-1.746093 3.839844-.046875 8.371094 3.796875 10.117188 1.023438.464844 2.097656.6875 3.152344.6875 2.90625 0 5.683594-1.667969 6.964844-4.484375l39.828125-87.667969c5.421875-.480468 10.574219-2.96875 14.453125-7.265625 1.328125-1.472656 3.148437-2.28125 5.128906-2.28125s3.804688.808594 5.128906 2.28125c3.886719 4.300781 9.042969 6.796875 14.46875 7.273438l58.386719 128.507812-41.671875 41.675781c-2.300781-.855468-4.75-1.324218-7.277344-1.324218-5.582031 0-10.828125 2.171875-14.769531 6.117187l-44.300781 44.300781c-6.554688 6.554688-6.554688 17.222657 0 23.777344l36.109375 36.109375c3.277343 3.277344 7.582031 4.914063 11.886719 4.914063 4.304687 0 8.613281-1.636719 11.890624-4.914063l44.296876-44.300781c3.945312-3.945312 6.117187-9.1875 6.117187-14.769531 0-2.527344-.46875-4.980469-1.320313-7.277344l99.839844-99.84375c8.246094-8.246094 12.789063-19.210937 12.789063-30.871094 0-11.664062-4.542969-22.628906-12.789063-30.875l-6.355468-6.355469c-.1875-.183593-.375-.355468-.574219-.519531l-16.875-16.875c-.140625-.136719-.285157-.269531-.433594-.398437-7.71875-6.609375-17.554687-10.246094-27.699219-10.246094-20.28125 0-37.863281 14.421875-41.804687 34.292969-.496094 2.5.289062 5.085937 2.09375 6.890625l22.429687 22.429687c1.457032 1.453125 3.410156 2.238281 5.40625 2.238281.738282 0 1.480469-.105468 2.207032-.328124 2.695312-.8125 4.726562-3.042969 5.28125-5.800782 2.5625-12.691406 13.832031-21.898437 26.800781-21.898437.824219 0 1.648437.039062 2.464843.113281l-62.199218 62.195312-54.996094-121.054687c6.113281-4.316406 9.636719-11.414063 9.242188-19.191406-.105469-1.980469.613281-3.839844 2.011718-5.238281 1.402344-1.402344 3.277344-2.121094 5.242188-2.015626 9.496094.488282 17.996094-4.882812 21.636718-13.671874 3.644532-8.792969 1.433594-18.59375-5.632812-24.96875-1.46875-1.328126-2.28125-3.148438-2.28125-5.128907s.8125-3.804687 2.28125-5.132812c7.066406-6.375 9.273438-16.175781 5.632812-24.964844-3.640624-8.792969-12.097656-14.160156-21.636718-13.671875-1.964844.097656-3.839844-.617188-5.238282-2.015625-1.402343-1.402344-2.117187-3.261719-2.015624-5.242187.484374-9.5-4.882813-17.996094-13.671876-21.636719-8.792968-3.640625-18.59375-1.429688-24.96875 5.632812-1.328124 1.46875-3.148437 2.28125-5.128906 2.28125-1.980468 0-3.804687-.8125-5.132812-2.28125-6.378906-7.0625-16.179688-9.273437-24.96875-5.632812-8.789063 3.640625-14.15625 12.136719-13.671875 21.640625.101562 1.976562-.613281 3.835937-2.015625 5.238281-1.398438 1.398437-3.265625 2.113281-5.238282 2.015625-9.523437-.492188-17.996093 4.882812-21.636718 13.671875-3.644532 8.789063-1.433594 18.589844 5.632812 24.96875 1.46875 1.324219 2.277344 3.148437 2.277344 5.128906s-.808594 3.804688-2.277344 5.128907c-7.066406 6.375-9.277344 16.179687-5.632812 24.96875zm184.675781 105.484374-10.945313-10.941406c3.800782-10.757812 14.089844-18.222656 25.78125-18.222656 6.410157 0 12.628907 2.269531 17.546876 6.394531l1.039062 1.039063c-14.183594 1.28125-26.652344 9.613281-33.421875 21.730468zm-48.671875 162.78125-44.300781 44.296876c-.59375.597656-1.566407.597656-2.160157 0l-36.109374-36.109376c-.597657-.597656-.597657-1.566406 0-2.160156l44.300781-44.300781c1.054687-1.058594 2.464843-1.640625 3.960937-1.640625s2.902344.582031 3.960938 1.640625l30.347656 30.347656c1.058594 1.058594 1.640625 2.464844 1.640625 3.960938 0 1.496093-.582031 2.90625-1.640625 3.964843zm104.320312-162.28125c.082032.074219.179688.132813.265626.207032l.050781.050781c5.359375 5.359375 8.3125 12.484375 8.3125 20.066406 0 7.578125-2.953125 14.707031-8.3125 20.066407l-98.492188 98.492187-21.019531-21.019531 118.480469-118.484375c.242187.207031.480469.410156.714843.621093zm-226.207031-160.332031c.4375-1.054687 2.203125-4.492187 6.738281-4.257812 6.265626.320312 12.394532-2.039063 16.828126-6.472657 4.433593-4.433593 6.792968-10.566406 6.472656-16.824218-.230469-4.519532 3.199218-6.300782 4.257812-6.738282s4.742188-1.605468 7.773438 1.753907c4.203125 4.652343 10.207031 7.320312 16.476562 7.320312 6.269532 0 12.273438-2.667969 16.472656-7.320312 3.03125-3.359375 6.714844-2.191407 7.773438-1.753907s4.488281 2.21875 4.257812 6.738282c-.316406 6.261718 2.039063 12.394531 6.472657 16.828125 4.433593 4.429687 10.578125 6.796875 16.828125 6.46875 4.519531-.21875 6.300781 3.203125 6.734375 4.257812.441406 1.058594 1.609375 4.742188-1.753907 7.777344-4.652343 4.199219-7.320312 10.203125-7.320312 16.472656s2.671875 12.273438 7.324219 16.476563c3.359375 3.03125 2.191406 6.714844 1.75 7.773437-.4375 1.058594-2.210938 4.484375-6.734375 4.257813-6.28125-.328125-12.394532 2.039062-16.828125 6.472656-4.433594 4.433594-6.789063 10.566406-6.472657 16.824219.230469 4.519531-3.199218 6.300781-4.257812 6.738281s-4.742188 1.605469-7.773438-1.753906c-4.199218-4.652344-10.207031-7.320313-16.472656-7.320313-6.269531 0-12.273437 2.667969-16.476562 7.320313-3.03125 3.359375-6.71875 2.191406-7.773438 1.753906-1.058594-.4375-4.488281-2.21875-4.257812-6.734375.320312-6.261719-2.039063-12.394531-6.472656-16.828125-4.164063-4.167969-9.835938-6.5-15.699219-6.5-.375 0-.75.007812-1.128907.027344-4.507812.242187-6.296874-3.199219-6.734374-4.257813-.441407-1.058593-1.605469-4.742187 1.753906-7.773437 4.652344-4.203125 7.320312-10.207032 7.320312-16.476563s-2.667968-12.273437-7.324218-16.472656c-3.359376-3.035156-2.191407-6.71875-1.753907-7.777344zm0 0" fill="#ffffff"/><path d="m447.621094 359.046875v-21.355469c0-9.191406-7.476563-16.671875-16.667969-16.671875h-21.355469c-9.191406 0-16.667968 7.480469-16.667968 16.671875v21.355469c0 9.1875 7.476562 16.667969 16.667968 16.667969h21.355469c9.191406 0 16.667969-7.480469 16.667969-16.667969zm-39.410156 0v-21.355469c0-.765625.625-1.386718 1.386718-1.386718h21.355469c.765625 0 1.386719.621093 1.386719 1.386718v21.355469c0 .761719-.621094 1.382813-1.386719 1.382813h-21.355469c-.761718 0-1.386718-.621094-1.386718-1.382813zm0 0" fill="#ffffff"/><path d="m474.253906 403.449219-15.101562-15.101563c-6.5-6.5-17.074219-6.496094-23.574219 0l-15.097656 15.101563c-6.5 6.5-6.5 17.074219 0 23.574219l15.097656 15.101562c3.148437 3.148438 7.335937 4.882812 11.789063 4.882812 4.453124 0 8.640624-1.734374 11.785156-4.882812l15.101562-15.101562c3.148438-3.148438 4.882813-7.332032 4.882813-11.785157s-1.734375-8.640625-4.882813-11.789062zm-10.808594 12.765625-15.097656 15.101562c-.335937.335938-.71875.40625-.980468.40625-.261719 0-.644532-.070312-.980469-.40625l-15.101563-15.097656c-.539062-.542969-.539062-1.421875 0-1.960938l15.101563-15.101562c.335937-.335938.71875-.40625.980469-.40625.261718 0 .644531.070312.980468.40625l15.097656 15.101562c.335938.335938.40625.71875.40625.980469s-.070312.640625-.40625.976563zm0 0" fill="#ffffff"/></g><path d="m496.550781 244.671875h-79.160156c2.230469-4.078125 3.503906-8.75 3.503906-13.71875v-40.167969c0-13.621094-9.550781-25.042968-22.308593-27.949218 3.332031-5.019532 5.28125-11.035157 5.28125-17.496094 0-6.15625-1.769532-11.90625-4.816407-16.777344h12.078125c9.132813 0 16.5625-7.429688 16.5625-16.5625v-20.296875c0-9.132813-7.429687-16.5625-16.5625-16.5625h-31.515625v-67.664063c0-4.132812-3.34375-7.476562-7.472656-7.476562s-7.476563 3.34375-7.476563 7.476562v67.664063h-31.511718c-9.132813 0-16.5625 7.429687-16.5625 16.5625v20.296875c0 9.132812 7.429687 16.5625 16.5625 16.5625h12.078125c-3.046875 4.871094-4.816407 10.621094-4.816407 16.777344 0 6.460937 1.949219 12.476562 5.28125 17.496094-12.757812 2.90625-22.308593 14.328124-22.308593 27.949218v40.167969c0 4.964844 1.273437 9.640625 3.503906 13.71875h-24.660156c1.78125-5.160156 2.699219-10.609375 2.699219-16.167969 0-19.195312-10.972657-35.863281-26.96875-44.089844 5.644531-5.730468 9.132812-13.589843 9.132812-22.25 0-14.917968-10.351562-27.457031-24.25-30.828124v-68.5625c0-4.128907-3.34375-7.472657-7.476562-7.472657-4.125 0-7.472657 3.34375-7.472657 7.472657v68.5625c-13.898437 3.371093-24.25 15.910156-24.25 30.828124 0 8.660157 3.488281 16.519532 9.132813 22.25-15.996094 8.230469-26.96875 24.898438-26.96875 44.089844 0 5.558594.917968 11.011719 2.699218 16.167969h-15.9375c.054688-.53125.082032-1.066406.082032-1.609375v-20.300781c0-.953125-.097656-1.886719-.253906-2.796875 6.109374-2.441406 10.441406-8.40625 10.441406-15.375v-9.335938c0-9.132812-7.429688-16.5625-16.5625-16.5625h-3.925782c2.234376-4.078125 3.503907-8.753906 3.503907-13.722656v-40.164062c0-15.808594-12.859375-28.671876-28.667969-28.671876h-12.609375v-67.664062c0-4.128906-3.347656-7.476562-7.472656-7.476562-4.128907 0-7.476563 3.347656-7.476563 7.476562v67.667969h-12.609375c-15.808593 0-28.667969 12.859375-28.667969 28.667969v4.980468c0 4.128906 3.347657 7.472656 7.472657 7.472656 4.128906 0 7.476562-3.34375 7.476562-7.472656v-4.980468c0-7.566407 6.15625-13.71875 13.71875-13.71875h40.167969c7.5625 0 13.71875 6.152343 13.71875 13.71875v40.167968c0 7.5625-6.15625 13.71875-13.71875 13.71875h-40.167969c-7.5625 0-13.71875-6.15625-13.71875-13.71875 0-4.128906-3.347656-7.476562-7.476562-7.476562-4.125 0-7.472657 3.347656-7.472657 7.476562 0 4.964844 1.269532 9.640625 3.503907 13.71875h-3.925781c-9.132813 0-16.5625 7.429688-16.5625 16.5625v9.335938c0 6.96875 4.332031 12.933594 10.441406 15.375-.15625.910156-.253906 1.84375-.253906 2.796875v20.300781c0 .542969.027343 1.082031.082031 1.613281h-66.1875c-8.519531 0-15.449219 6.929688-15.449219 15.445313v20.734375c0 8.519531 6.929688 15.449219 15.449219 15.449219h29.765625v18.875c0 27.242187 22.164062 49.40625 49.40625 49.40625h321.492187c27.246094 0 49.410157-22.164063 49.410157-49.40625v-18.875h31.027343c8.519531 0 15.449219-6.929688 15.449219-15.449219v-20.734375c0-8.519532-6.929688-15.449219-15.449219-15.449219zm-165.011719-132.671875v-20.296875c0-.890625.722657-1.613281 1.613282-1.613281h77.976562c.890625 0 1.613282.726562 1.613282 1.613281v20.296875c0 .890625-.726563 1.613281-1.613282 1.613281h-77.976562c-.890625 0-1.613282-.722656-1.613282-1.613281zm57.378907 33.339844c0 9.25-7.527344 16.777344-16.777344 16.777344s-16.777344-7.527344-16.777344-16.777344 7.527344-16.777344 16.777344-16.777344 16.777344 7.527344 16.777344 16.777344zm-50.582031 85.613281v-40.167969c0-7.566406 6.15625-13.71875 13.722656-13.71875h40.164062c7.566406 0 13.722656 6.152344 13.722656 13.71875v40.167969c0 7.566406-6.15625 13.71875-13.722656 13.71875h-40.164062c-7.566406 0-13.722656-6.152344-13.722656-13.71875zm-99.746094-68.789063c0-9.25 7.527344-16.773437 16.777344-16.773437s16.777343 7.523437 16.777343 16.773437c0 9.253907-7.527343 16.777344-16.777343 16.777344s-16.777344-7.523437-16.777344-16.777344zm-17.832032 66.339844c0-19.085937 15.527344-34.613281 34.609376-34.613281 19.085937 0 34.613281 15.527344 34.613281 34.613281 0 5.691406-1.398438 11.207032-4.027344 16.167969h-61.171875c-2.628906-4.957031-4.023438-10.472656-4.023438-16.167969zm-134.445312-33.25c0-.890625.726562-1.613281 1.613281-1.613281h98.347657c.890624 0 1.613281.722656 1.613281 1.613281v9.335938c0 .886718-.722657 1.609375-1.613281 1.609375h-98.347657c-.886719 0-1.609375-.722657-1.609375-1.609375v-9.335938zm10.1875 47.808594v-20.300781c0-.886719.722656-1.609375 1.613281-1.609375h77.976563c.890625 0 1.613281.722656 1.613281 1.609375v20.300781c0 .886719-.722656 1.609375-1.613281 1.609375h-77.976563c-.890625 0-1.613281-.722656-1.613281-1.609375zm400.550781 37.792969c0 .273437-.222656.496093-.5.496093h-115.574219c-4.128906 0-7.476562 3.347657-7.476562 7.476563s3.347656 7.472656 7.476562 7.472656h69.597657v18.878907c0 18.996093-15.460938 34.457031-34.460938 34.457031h-321.492187c-19 0-34.457032-15.460938-34.457032-34.457031v-18.878907h284.734376c4.128906 0 7.476562-3.34375 7.476562-7.472656s-3.347656-7.476563-7.476562-7.476563h-329.449219c-.277344 0-.5-.222656-.5-.496093v-20.734375c0-.273438.222656-.5.5-.5h481.105469c.273437 0 .496093.226562.496093.5zm0 0" transform="matrix(0.0390625 0 0 0.0390625 252.5 340)" id="L1_451" fill="#ffffff"/><g transform="matrix(0.13671928644180298 0 0 0.13671928644180298 315 140)" id="L1_452"><path d="m492.914062 299.082031c0-68.910156-55.644531-125.058593-124.363281-125.894531v-32.332031c0-12.496094-10.164062-22.660157-22.660156-22.660157h-1.871094c-10.265625-30.328124-38.777343-51.042968-71.277343-51.042968-.144532 0-.292969.011718-.441407.011718-11.839843-38.832031-47.996093-67.164062-90.652343-67.164062-29.535157 0-57.132813 13.679688-75.039063 36.898438-7.21875-2.835938-14.976563-4.316407-22.753906-4.316407-25.960938 0-49.417969 16.367188-58.371094 40.726563-.4375 1.191406-.84375 2.40625-1.203125 3.617187-1.1875 3.972657 1.074219 8.15625 5.046875 9.34375 3.976563 1.1875 8.160156-1.074219 9.347656-5.046875.269531-.914062.578125-1.832031.90625-2.734375 6.789063-18.472656 24.582031-30.882812 44.273438-30.882812 7.671875 0 15 1.792969 21.78125 5.332031.066406.035156.136719.066406.207031.097656 15.523438 8.199219 25.164062 24.164063 25.164062 41.71875 0 4.148438 3.359376 7.511719 7.507813 7.511719s7.511719-3.363281 7.511719-7.511719c0-20.308594-9.777344-39-26-50.582031 15.085937-18.378906 37.589844-29.148437 61.621094-29.148437 37.625 0 69.222656 26.203124 77.5625 61.316406.015624.089844.042968.179687.0625.269531 1.363281 5.832031 2.109374 11.902344 2.109374 18.144531 0 43.964844-35.769531 79.730469-79.734374 79.730469-6.84375 0-13.65625-.875-20.246094-2.597656-2.253906-.589844-4.652344-.101563-6.492188 1.320312-1.84375 1.421875-2.921875 3.617188-2.921875 5.945313v84.722656c0 4.148438 3.363281 7.511719 7.511719 7.511719s7.511719-3.363281 7.511719-7.511719v-75.5c4.832031.753906 9.726562 1.132812 14.636719 1.132812 38.5625 0 71.8125-23.15625 86.585937-56.292968h70.164063.019531.023437 7.449219c4.210937 0 7.640625 3.429687 7.640625 7.640625v32.566406c-15.484375 1.9375-27.507812 15.171875-27.507812 31.175781 0 16 12.023437 29.238282 27.507812 31.175782v126.617187c-15.484375 1.9375-27.507812 15.175781-27.507812 31.175781 0 15.859375 11.804687 29.003906 27.089843 31.125-4.039062 40.9375-38.179687 72.285156-79.953125 72.285156h-20.101562c17.832031-20.460937 27.785156-46.691406 27.785156-74.320312v-261.59375c0-4.148438-3.363281-7.511719-7.511719-7.511719-4.148437 0-7.511719 3.363281-7.511719 7.511719v261.59375c0 28.675781-12.355468 55.609375-34 74.324219h-59.859374c-21.640626-18.714844-34-45.648438-34-74.324219v-76.28125c16.472656-2.835938 29.046874-17.210938 29.046874-34.480469v-12.96875c0-4.148437-3.363281-7.511719-7.511718-7.511719-4.148438 0-7.511719 3.363282-7.511719 7.511719v12.96875c0 11.015625-8.960937 19.976563-19.976563 19.976563h-10.117187c-11.011719 0-19.976563-8.960938-19.976563-19.976563v-51.902343c0-3.121094-1.929687-5.917969-4.847656-7.023438-2.917968-1.105469-6.214844-.292969-8.285156 2.042969-4.757812 5.371093-11.589844 8.453125-18.746094 8.453125-13.804687 0-25.035156-11.230469-25.035156-25.035156v-31.136719c0-2.800781-1.558594-5.371094-4.046875-6.664063-15.6875-8.160156-25.433594-24.195312-25.433594-41.847656 0-15.808594 7.871094-30.484375 21.054688-39.265625 3.453125-2.300781 4.390625-6.964844 2.089843-10.417969-2.300781-3.453125-6.964843-4.386718-10.417968-2.085937-17.375 11.574219-27.746094 30.925781-27.746094 51.769531 0 21.71875 11.179688 41.578125 29.476562 52.878906v26.769532c0 7.195312 1.917969 13.949218 5.253907 19.792968v158.382813c0 52.601562 42.792969 95.390625 95.390625 95.390625h142.535156c24.902344 0 48.464844-9.535156 66.351562-26.855469 16.621094-16.09375 26.683594-37.300781 28.667969-60.160156 68.890625-.632813 124.738281-56.863281 124.738281-125.898438zm-217.339843-216.835937c23.082031 1.070312 43.269531 15.179687 52.355469 35.949218h-54.464844c1.917968-7.5 2.9375-15.355468 2.9375-23.441406 0-4.242187-.285156-8.414062-.828125-12.507812zm-225.316407 334.363281v-143.371094c5.839844 3.332031 12.589844 5.25 19.78125 5.25 5.882813 0 11.628907-1.300781 16.859376-3.730469v37.136719c0 19.296875 15.699218 35 34.996093 35h1.046875v75.761719c0 27.632812 9.953125 53.859375 27.785156 74.324219h-20.101562c-44.316406 0-80.367188-36.054688-80.367188-80.371094zm318.292969-180.542969c34.050781.832032 61.503907 28.769532 61.503907 63.015625 0 34.25-27.453126 62.1875-61.503907 63.015625zm-1.550781 173.910156h-9.546875c-9.046875 0-16.410156-7.359374-16.410156-16.410156 0-9.046875 7.363281-16.410156 16.410156-16.410156h9.546875c43.050781 0 78.074219-35.023438 78.074219-78.074219 0-43.054687-35.023438-78.078125-78.074219-78.078125h-9.546875c-9.046875 0-16.410156-7.359375-16.410156-16.410156 0-9.046875 7.363281-16.410156 16.410156-16.410156h9.546875c61.148438 0 110.894531 49.75 110.894531 110.894531 0 61.148437-49.746093 110.898437-110.894531 110.898437zm0 0" fill="#ffffff"/><path d="m83.855469 345.144531c-14.628907 0-26.53125 11.902344-26.53125 26.527344 0 14.628906 11.902343 26.53125 26.53125 26.53125 14.628906 0 26.53125-11.902344 26.53125-26.53125 0-14.625-11.902344-26.527344-26.53125-26.527344zm0 38.039063c-6.34375 0-11.507813-5.164063-11.507813-11.511719 0-6.34375 5.164063-11.507813 11.507813-11.507813 6.347656 0 11.511719 5.164063 11.511719 11.507813 0 6.347656-5.164063 11.511719-11.511719 11.511719zm0 0" fill="#ffffff"/></g><g transform="matrix(0.0976562425494194 0 0 0.0976562425494194 62.5 237.5)" id="L1_453"><path d="m509.871094 245.472656-67.769532-127.488281v-74.28125c0-9.691406-7.882812-17.574219-17.574218-17.574219h-29.210938v-18.597656c0-4.160156-3.371094-7.53125-7.53125-7.53125s-7.53125 3.371094-7.53125 7.53125v18.597656h-40.640625v-18.597656c0-4.160156-3.371093-7.53125-7.53125-7.53125-4.160156 0-7.53125 3.371094-7.53125 7.53125v18.597656h-40.640625v-18.597656c0-4.160156-3.371094-7.53125-7.53125-7.53125s-7.53125 3.371094-7.53125 7.53125v18.597656h-40.636718v-18.597656c0-4.160156-3.371094-7.53125-7.53125-7.53125-4.160157 0-7.535157 3.371094-7.535157 7.53125v18.597656h-40.636719v-18.597656c0-4.160156-3.371093-7.53125-7.53125-7.53125-4.160156 0-7.53125 3.371094-7.53125 7.53125v18.597656h-40.640624v-18.597656c0-4.160156-3.371094-7.53125-7.53125-7.53125-4.160157 0-7.53125 3.371094-7.53125 7.53125v18.597656h-40.636719v-18.597656c0-4.160156-3.371094-7.53125-7.53125-7.53125-4.160157 0-7.535157 3.371094-7.535157 7.53125v18.597656h-28.464843c-9.691407 0-17.574219 7.882813-17.574219 17.570313v295.621093c0 9.691407 7.882812 17.574219 17.574219 17.574219h406.953125c9.6875 0 17.574218-7.882812 17.574218-17.574219v-17.824218l23.453126.101562h.078124c5.675782 0 10.921876-2.570312 14.402344-7.0625 3.492188-4.511718 4.667969-10.265625 3.21875-15.785156l-36.988281-140.835938 50.300781 94.628907c.796875 1.496093.234375 3.003906-.675781 3.839843-3.066406 2.8125-3.269531 7.578126-.453125 10.640626 1.484375 1.621093 3.511719 2.441406 5.546875 2.441406 1.820313 0 3.648437-.65625 5.09375-1.984375 6.128906-5.628907 7.6875-14.679688 3.792969-22.007813zm-82.835938 93.847656c0 1.382813-1.125 2.511719-2.507812 2.511719h-406.953125c-1.382813 0-2.511719-1.128906-2.511719-2.511719v-211.835937h39.859375c4.160156 0 7.53125-3.371094 7.53125-7.53125s-3.371094-7.53125-7.53125-7.53125h-39.859375v-68.722656c0-1.382813 1.128906-2.511719 2.511719-2.511719h28.46875v4.347656c0 4.160156 3.371093 7.53125 7.53125 7.53125 4.160156 0 7.53125-3.371094 7.53125-7.53125v-4.347656h40.636719v4.347656c0 4.160156 3.375 7.53125 7.535156 7.53125s7.53125-3.371094 7.53125-7.53125v-4.347656h40.636718v4.347656c0 4.160156 3.371094 7.53125 7.53125 7.53125 4.160157 0 7.535157-3.371094 7.535157-7.53125v-4.347656h40.636719v4.347656c0 4.160156 3.371093 7.53125 7.53125 7.53125 4.160156 0 7.53125-3.371094 7.53125-7.53125v-4.347656h40.640624v4.347656c0 4.160156 3.371094 7.53125 7.53125 7.53125 4.160157 0 7.53125-3.371094 7.53125-7.53125v-4.347656h40.636719v4.347656c0 4.160156 3.375 7.53125 7.535157 7.53125 4.15625 0 7.53125-3.371094 7.53125-7.53125v-4.347656h40.636718v4.347656c0 4.160156 3.371094 7.53125 7.53125 7.53125s7.53125-3.371094 7.53125-7.53125v-4.347656h29.210938c1.386718 0 2.511718 1.128906 2.511718 2.511719v68.722656h-41.269531l.953125-2.925781c2.046875-6.289063-.085937-12.859375-5.441406-16.738282-5.355469-3.878906-12.261719-3.863281-17.597656.042969l-21.367188 15.632813-9.898437-24.554688c-2.472657-6.136718-8.34375-9.792968-14.925781-9.324218-6.597657.46875-11.878907 4.921874-13.457032 11.34375l-6.316406 25.710937-23.367188-12.449219c-5.832031-3.109375-12.675781-2.144531-17.425781 2.449219-3.058593 2.964844-4.628906 6.839844-4.585937 10.808594h-162.601563c-4.160156 0-7.53125 3.371093-7.53125 7.53125 0 4.160156 3.371094 7.535156 7.53125 7.535156h168.371094l7.488281 15.222656-25.902344 5.484375c-6.46875 1.367188-11.089843 6.503906-11.773437 13.082032-.683594 6.574218 2.789063 12.550781 8.835937 15.21875l24.222657 10.6875-16.316407 20.847656c-4.074218 5.207031-4.316406 12.113281-.609374 17.589844 3.707031 5.476562 10.203124 7.824218 16.550781 5.980468l23.609375-6.859375v73.011719c0 4.160156 3.371094 7.53125 7.53125 7.53125s7.53125-3.371094 7.53125-7.53125v-32.867188c.914062.164063 1.828125.257813 2.730468.257813 4.871094 0 9.425782-2.390625 12.285157-6.660156l14.730469-22 17.699218 19.691406c2.292969 2.550781 5.21875 4.15625 8.34375 4.742187v36.839844c0 4.15625 3.371094 7.53125 7.53125 7.53125s7.53125-3.375 7.53125-7.53125v-42.980468c2.023438-2.875 2.980469-6.445313 2.574219-10.207032l-2.859375-26.324218 26.21875 3.707031c6.546875.929687 12.644531-2.316407 15.535156-8.261719 2.890625-5.949219 1.675782-12.746094-3.097656-17.324219l-19.105469-18.328125 22.464844-14.011718c5.609375-3.496094 8.195313-9.902344 6.585937-16.316407-1.605468-6.414062-6.910156-10.84375-13.503906-11.28125l-26.417968-1.757812 2.339843-7.183594h46.179688v211.835937zm-48.183594-150.515624 18.953126 18.183593-26.003907-3.679687c-4.597656-.652344-9.152343.832031-12.488281 4.0625-3.339844 3.230468-4.964844 7.734375-4.464844 12.351562l2.777344 25.625c-.070312.0625-.140625.128906-.210938.191406l-17.292968-19.238281c-3.105469-3.453125-7.550782-5.242187-12.179688-4.914062-4.632812.328125-8.773437 2.730469-11.355468 6.589843l-14.617188 21.820313-.894531-26.242187c-.15625-4.644532-2.40625-8.871094-6.167969-11.597657-2.589844-1.878906-5.636719-2.851562-8.742188-2.851562-1.398437 0-2.8125.199219-4.199218.601562l-25.21875 7.320313 16.183594-20.679688c2.863281-3.660156 3.859374-8.339844 2.730468-12.847656s-4.214844-8.164062-8.46875-10.042969l-24.023437-10.601562 25.691406-5.4375c4.542969-.964844 8.316406-3.910157 10.347656-8.089844s2.019531-8.964844-.03125-13.136719l-11.589843-23.5625 23.175781 12.347656c4.101562 2.183594 8.886719 2.347657 13.125.453126 4.242187-1.894532 7.3125-5.566407 8.421875-10.082032l6.269531-25.5 9.816406 24.355469c1.738281 4.308594 5.292969 7.511719 9.761719 8.785156 4.46875 1.277344 9.183594.433594 12.929688-2.308593l21.195312-15.503907-8.132812 24.964844c-1.441407 4.417969-.773438 9.160156 1.828124 13.007813 2.601563 3.847656 6.753907 6.234374 11.390626 6.539062l26.203124 1.75-22.28125 13.898438c-3.941406 2.457031-6.476562 6.515624-6.957031 11.136718s1.167969 9.117188 4.519531 12.332032zm89.273438 116.507812c-.355469.457031-1.148438 1.222656-2.492188 1.222656-.003906 0-.011718 0-.015624 0l-23.515626-.101562v-105.078125l26.582032 101.222656c.34375 1.308594-.203125 2.273437-.558594 2.734375zm0 0" fill="#ffffff"/><path d="m310.949219 162.726562c-.605469-.085937-.777344-.691406-.433594-1.035156l12.085937-11.914062c1.121094-1.296875 2.246094-2.589844 2.332032-4.660156.085937-2.933594-.519532-5.179688-3.453125-5.179688h-29.695313c-2.933594 0-3.710937 2.503906-3.710937 5.179688 0 2.589843.777343 5.09375 3.710937 5.09375h17.4375c-1.292968 1.121093-2.332031 1.984374-3.367187 3.277343l-8.199219 8.804688c-1.46875 1.640625-2.332031 3.800781-1.382812 6.042969.691406 2.070312 2.675781 3.453124 4.75 3.195312 7.679687-.949219 16.570312.257812 16.226562 9.839844-.171875 5.699218-3.796875 10.011718-9.839844 10.011718-5.007812 0-8.027344-1.726562-10.273437-6.128906-1.207031-2.675781-4.058594-3.019531-6.734375-1.984375-3.019532 1.296875-4.140625 4.058594-2.761719 7.078125 3.453125 7.683594 11.050781 10.878906 19.507813 10.964844 12.429687 0 21.667968-8.203125 21.667968-20.804688.085938-10.101562-7.164062-17.4375-17.867187-17.78125zm0 0" fill="#ffffff"/><path d="m354.402344 139.59375c-1.640625 0-2.847656.257812-4.058594 1.035156l-11.566406 6.644532c-2.160156 1.125-2.503906 3.453124-1.640625 5.613281.777343 1.898437 2.761719 2.933593 4.574219 2.242187l4.664062-1.8125c.863281-.34375 1.898438-.863281 2.675781-1.640625v45.144531c0 3.195313 2.675781 3.972657 5.351563 3.972657 2.675781 0 5.351562-.777344 5.351562-3.972657v-53.257812c0-3.195312-2.675781-3.96875-5.351562-3.96875zm0 0" fill="#ffffff"/><path d="m243.886719 243.585938h-15.46875v-23.621094c0-4.160156-3.371094-7.53125-7.53125-7.53125-4.160157 0-7.53125 3.371094-7.53125 7.53125v23.621094h-55.789063v-44.21875h35.101563c4.160156 0 7.53125-3.375 7.53125-7.53125 0-4.160157-3.371094-7.535157-7.53125-7.535157h-35.101563v-29.769531c0-4.160156-3.375-7.53125-7.535156-7.53125s-7.53125 3.371094-7.53125 7.53125v29.769531h-55.785156v-29.769531c0-4.160156-3.375-7.53125-7.535156-7.53125-4.160157 0-7.53125 3.371094-7.53125 7.53125v29.769531h-35.578126c-4.160156 0-7.53125 3.375-7.53125 7.535157 0 4.15625 3.371094 7.53125 7.53125 7.53125h35.578126v44.21875h-35.578126c-4.160156 0-7.53125 3.375-7.53125 7.53125 0 4.160156 3.371094 7.535156 7.53125 7.535156h35.578126v39.101562c0 4.160156 3.371093 7.53125 7.53125 7.53125 4.160156 0 7.535156-3.371094 7.535156-7.53125v-39.101562h55.789062v39.101562c0 4.160156 3.371094 7.53125 7.53125 7.53125s7.53125-3.371094 7.53125-7.53125v-39.101562h55.789063v39.101562c0 4.160156 3.371093 7.53125 7.53125 7.53125 4.160156 0 7.53125-3.371094 7.53125-7.53125v-39.101562h15.46875c4.160156 0 7.53125-3.375 7.53125-7.535156 0-4.160157-3.371094-7.53125-7.53125-7.53125zm-157.171875 0v-44.21875h55.789062v44.21875zm0 0" fill="#ffffff"/></g><path d="m453.609375 337.703125c-3.308594-3.734375-8.066406-5.875-13.054687-5.875h-129.691407c5.914063-14.46875 9.011719-30.101563 9.011719-45.835937 0-32.445313-12.679688-62.910157-35.699219-85.78125-.527343-.523438-.804687-1.238282-.753906-1.957032l7.933594-112.199218c.339843-4.8125-1.351563-9.597657-4.640625-13.125-3.289063-3.53125-7.941406-5.554688-12.765625-5.554688h-51.742188l.757813-.761719c3.539062-3.535156 5.394531-8.425781 5.089844-13.421875-.300782-4.960937-2.707032-9.558594-6.609376-12.613281-28.546874-22.367187-66.101562-26.5625-97.992187-13.527344l-12.058594-23.03125c-1.472656-2.816406-4.5625-4.394531-7.710937-3.9453122l-97.25 13.9882812c-4.101563.589844-6.945313 4.390625-6.355469 8.488281.589844 4.101563 4.390625 6.945313 8.488281 6.355469l92-13.226562 9.472656 18.089843c-6.757812 4.0625-13.128906 8.976563-18.925781 14.773438-35.1875 35.1875-38.609375 91.21875-7.964843 130.332031 3.058593 3.902344 7.65625 6.308594 12.613281 6.609375.355469.019531.707031.03125 1.058593.03125 4.621094 0 9.078126-1.832031 12.367188-5.121094l4.203125-4.207031 1.621094 21.515625c.058593.730469-.230469 1.464844-.789063 2.011719-22.890625 22.480468-35.742187 52.519531-36.1875 84.574218-.445312 32.339844 11.859375 62.964844 34.652344 86.230469 17.277344 17.636719 38.910156 29.328125 62.449219 34.042969v53.488281c0 .722657-.3125 1.40625-.863281 1.871094l-35.5 30.089844c-4.039063 3.421875-5.46875 8.84375-3.648438 13.808593 1.824219 4.96875 6.421875 8.179688 11.714844 8.179688h104.222656c5.292969 0 9.890625-3.210938 11.710938-8.179688 1.824218-4.96875.390624-10.390624-3.644532-13.808593l-35.5-30.089844c-.550781-.464844-.867187-1.148437-.867187-1.871094v-53.507812c15.355469-3.082031 30.011719-9.125 43.09375-17.816407l13.242187 109.914063c1.058594 8.757813 8.503906 15.359375 17.324219 15.359375h126.632813c8.820312 0 16.269531-6.601562 17.324218-15.363281l17.5-145.273438c.597656-4.949219-.957031-9.929687-4.269531-13.660156zm-11.222656 9.949219c.273437.308594.71875.96875.601562 1.921875l-9.324219 77.386719h-32.285156l9.621094-80.132813h29.554688c.957031 0 1.5625.515625 1.832031.824219zm-163.125 24.972656c-.019531-.40625-.0625-.8125-.144531-1.210938l-2.632813-21.839843c-.113281-.953125.328125-1.613281.601563-1.921875.273437-.308594.875-.824219 1.832031-.824219h20.074219c.023437 0 .050781.003906.078124.003906.023438 0 .050782-.003906.074219-.003906h9.171875l9.703125 80.132813h-32.210937zm44.160156-25.796875h72.472656l-9.621093 80.132813h-53.148438zm-226.753906-176.316406c-.484375-.027344-1.179688-.207031-1.710938-.886719-25.972656-33.152344-23.066406-80.644531 6.761719-110.476562 16.207031-16.207032 37.625-24.464844 59.125-24.464844 18.078125 0 36.210938 5.839844 51.351562 17.703125.679688.53125.859376 1.222656.886719 1.710937.027344.417969-.035156 1.222656-.722656 1.910156l-4.519531 4.519532c-7.667969-5.925782-16.285156-10.238282-25.632813-12.804688-3.996093-1.101562-8.121093 1.25-9.21875 5.246094-1.097656 3.992188 1.253907 8.121094 5.246094 9.214844 6.832031 1.878906 13.171875 4.925781 18.890625 9.058594l-40.335938 40.335937c-.023437.023437-.046874.046875-.070312.074219l-42.40625 42.40625c-16.933594-23.441406-14.445312-55.980469 6.195312-76.621094 8.015626-8.015625 18.074219-13.539062 29.082032-15.972656 4.046875-.894532 6.601562-4.894532 5.707031-8.941406-.894531-4.042969-4.894531-6.597657-8.941406-5.703126-13.808594 3.050782-26.414063 9.972657-36.453125 20.011719-26.433594 26.433594-29.101563 68.445313-6.308594 97.941407l-5.015625 5.015624c-.6875.691407-1.496094.75-1.910156.722657zm117.261719 300.851562 30.25 25.640625h-90.460938l30.25-25.640625c3.917969-3.320312 6.167969-8.171875 6.167969-13.308593v-51.460938c2.644531.191406 5.300781.304688 7.976562.324219h.820313c2.953125 0 5.898437-.113281 8.832031-.328125v51.460937c-.003906 5.140625 2.246094 9.992188 6.164063 13.3125zm-15.71875-79.445312c-28.285157-.191407-54.851563-11.519531-74.808594-31.890625-19.976563-20.390625-30.761719-47.214844-30.371094-75.527344.105469-7.554688 1.003906-14.980469 2.640625-22.183594h37.3125c4.140625 0 7.5-3.359375 7.5-7.5s-3.359375-7.496094-7.5-7.496094h-32.703125c5.375-13.71875 13.628906-26.277343 24.449219-36.90625 3.71875-3.648437 5.625-8.691406 5.238281-13.839843l-2.589844-34.371094 32.761719-32.761719 48.476563 92.570313c1.339843 2.558593 3.949218 4.019531 6.652343 4.019531 1.171875 0 2.359375-.273438 3.472657-.855469 3.667968-1.921875 5.085937-6.453125 3.164062-10.121093l-50.652344-96.726563 35.953125-35.953125h66.742188c.925781 0 1.519531.492188 1.792969.78125.269531.292969.714843.917969.648437 1.84375l-7.929687 112.199219c-.359376 5.078125 1.515624 10.054687 5.140624 13.65625 10.621094 10.550781 18.722657 22.945312 24.019532 36.464843h-128.972656c-4.144532 0-7.5 3.359376-7.5 7.5 0 4.140626 3.359374 7.5 7.5 7.5h133.585937c1.746094 7.675782 2.640625 15.605469 2.640625 23.675782 0 15.878906-3.59375 31.628906-10.414062 45.835937h-15.542969c-4.988281 0-9.746094 2.140625-13.054688 5.875-3.3125 3.730469-4.867187 8.710938-4.269531 13.664063l2.210938 18.367187c-18.6875 14.488281-41.796876 22.375-65.59375 22.179688zm95.777343 102.925781-6.371093-52.882812h32.21875l6.621093 54.679687c.015625.121094.042969.238281.058594.363281h-30.09375c-1.242187 0-2.285156-.929687-2.433594-2.160156zm129.0625 2.160156h-79.269531c-1.238281 0-2.285156-.929687-2.433594-2.164062l-6.40625-52.878906h49.53125l-3.207031 26.722656c-.492187 4.109375 2.441406 7.84375 6.554687 8.339844.300782.035156.601563.050781.902344.050781 3.742188 0 6.976563-2.796875 7.433594-6.605469l3.421875-28.507812h32.277344l-6.371094 52.886718c-.148437 1.226563-1.191406 2.15625-2.433594 2.15625zm0 0" transform="matrix(0.1757810115814209 0 0 0.1757810115814209 217.5 217.5)" id="L1_454" fill="#ffffff"/></defs><g fi:class="KUsePattern"><pattern id="pattern_L1_445" width="350" height="350" patternUnits="userSpaceOnUse"><use xlink:href="#L1_445" x="-350" y="-350"/><use xlink:href="#L1_445" x="0" y="-350"/><use xlink:href="#L1_445" x="350" y="-350"/><use xlink:href="#L1_445" x="-350" y="0"/><use xlink:href="#L1_445" x="0" y="0"/><use xlink:href="#L1_445" x="350" y="0"/><use xlink:href="#L1_445" x="-350" y="350"/><use xlink:href="#L1_445" x="0" y="350"/><use xlink:href="#L1_445" x="350" y="350"/></pattern><rect x="0" y="0" width="100%" height="100%" fill="url(#pattern_L1_445)"/></g><g fi:class="KUsePattern"><pattern id="pattern_L1_446" width="350" height="350" patternUnits="userSpaceOnUse"><use xlink:href="#L1_446" x="-350" y="-350"/><use xlink:href="#L1_446" x="0" y="-350"/><use xlink:href="#L1_446" x="350" y="-350"/><use xlink:href="#L1_446" x="-350" y="0"/><use xlink:href="#L1_446" x="0" y="0"/><use xlink:href="#L1_446" x="350" y="0"/><use xlink:href="#L1_446" x="-350" y="350"/><use xlink:href="#L1_446" x="0" y="350"/><use xlink:href="#L1_446" x="350" y="350"/></pattern><rect x="0" y="0" width="100%" height="100%" fill="url(#pattern_L1_446)"/></g><g fi:class="KUsePattern"><pattern id="pattern_L1_447" width="350" height="350" patternUnits="userSpaceOnUse"><use xlink:href="#L1_447" x="-350" y="-350"/><use xlink:href="#L1_447" x="0" y="-350"/><use xlink:href="#L1_447" x="350" y="-350"/><use xlink:href="#L1_447" x="-350" y="0"/><use xlink:href="#L1_447" x="0" y="0"/><use xlink:href="#L1_447" x="350" y="0"/><use xlink:href="#L1_447" x="-350" y="350"/><use xlink:href="#L1_447" x="0" y="350"/><use xlink:href="#L1_447" x="350" y="350"/></pattern><rect x="0" y="0" width="100%" height="100%" fill="url(#pattern_L1_447)"/></g><g fi:class="KUsePattern"><pattern id="pattern_L1_448" width="350" height="350" patternUnits="userSpaceOnUse"><use xlink:href="#L1_448" x="-350" y="-350"/><use xlink:href="#L1_448" x="0" y="-350"/><use xlink:href="#L1_448" x="350" y="-350"/><use xlink:href="#L1_448" x="-350" y="0"/><use xlink:href="#L1_448" x="0" y="0"/><use xlink:href="#L1_448" x="350" y="0"/><use xlink:href="#L1_448" x="-350" y="350"/><use xlink:href="#L1_448" x="0" y="350"/><use xlink:href="#L1_448" x="350" y="350"/></pattern><rect x="0" y="0" width="100%" height="100%" fill="url(#pattern_L1_448)"/></g><g fi:class="KUsePattern"><pattern id="pattern_L1_449" width="350" height="350" patternUnits="userSpaceOnUse"><use xlink:href="#L1_449" x="-350" y="-350"/><use xlink:href="#L1_449" x="0" y="-350"/><use xlink:href="#L1_449" x="350" y="-350"/><use xlink:href="#L1_449" x="-350" y="0"/><use xlink:href="#L1_449" x="0" y="0"/><use xlink:href="#L1_449" x="350" y="0"/><use xlink:href="#L1_449" x="-350" y="350"/><use xlink:href="#L1_449" x="0" y="350"/><use xlink:href="#L1_449" x="350" y="350"/></pattern><rect x="0" y="0" width="100%" height="100%" fill="url(#pattern_L1_449)"/></g><g fi:class="KUsePattern"><pattern id="pattern_L1_450" width="350" height="350" patternUnits="userSpaceOnUse"><use xlink:href="#L1_450" x="-350" y="-350"/><use xlink:href="#L1_450" x="0" y="-350"/><use xlink:href="#L1_450" x="350" y="-350"/><use xlink:href="#L1_450" x="-350" y="0"/><use xlink:href="#L1_450" x="0" y="0"/><use xlink:href="#L1_450" x="350" y="0"/><use xlink:href="#L1_450" x="-350" y="350"/><use xlink:href="#L1_450" x="0" y="350"/><use xlink:href="#L1_450" x="350" y="350"/></pattern><rect x="0" y="0" width="100%" height="100%" fill="url(#pattern_L1_450)"/></g><g fi:class="KUsePattern"><pattern id="pattern_L1_451" width="350" height="350" patternUnits="userSpaceOnUse"><use xlink:href="#L1_451" x="-350" y="-350"/><use xlink:href="#L1_451" x="0" y="-350"/><use xlink:href="#L1_451" x="350" y="-350"/><use xlink:href="#L1_451" x="-350" y="0"/><use xlink:href="#L1_451" x="0" y="0"/><use xlink:href="#L1_451" x="350" y="0"/><use xlink:href="#L1_451" x="-350" y="350"/><use xlink:href="#L1_451" x="0" y="350"/><use xlink:href="#L1_451" x="350" y="350"/></pattern><rect x="0" y="0" width="100%" height="100%" fill="url(#pattern_L1_451)"/></g><g fi:class="KUsePattern"><pattern id="pattern_L1_452" width="350" height="350" patternUnits="userSpaceOnUse"><use xlink:href="#L1_452" x="-350" y="-350"/><use xlink:href="#L1_452" x="0" y="-350"/><use xlink:href="#L1_452" x="350" y="-350"/><use xlink:href="#L1_452" x="-350" y="0"/><use xlink:href="#L1_452" x="0" y="0"/><use xlink:href="#L1_452" x="350" y="0"/><use xlink:href="#L1_452" x="-350" y="350"/><use xlink:href="#L1_452" x="0" y="350"/><use xlink:href="#L1_452" x="350" y="350"/></pattern><rect x="0" y="0" width="100%" height="100%" fill="url(#pattern_L1_452)"/></g><g fi:class="KUsePattern"><pattern id="pattern_L1_453" width="350" height="350" patternUnits="userSpaceOnUse"><use xlink:href="#L1_453" x="-350" y="-350"/><use xlink:href="#L1_453" x="0" y="-350"/><use xlink:href="#L1_453" x="350" y="-350"/><use xlink:href="#L1_453" x="-350" y="0"/><use xlink:href="#L1_453" x="0" y="0"/><use xlink:href="#L1_453" x="350" y="0"/><use xlink:href="#L1_453" x="-350" y="350"/><use xlink:href="#L1_453" x="0" y="350"/><use xlink:href="#L1_453" x="350" y="350"/></pattern><rect x="0" y="0" width="100%" height="100%" fill="url(#pattern_L1_453)"/></g><g fi:class="KUsePattern"><pattern id="pattern_L1_454" width="350" height="350" patternUnits="userSpaceOnUse"><use xlink:href="#L1_454" x="-350" y="-350"/><use xlink:href="#L1_454" x="0" y="-350"/><use xlink:href="#L1_454" x="350" y="-350"/><use xlink:href="#L1_454" x="-350" y="0"/><use xlink:href="#L1_454" x="0" y="0"/><use xlink:href="#L1_454" x="350" y="0"/><use xlink:href="#L1_454" x="-350" y="350"/><use xlink:href="#L1_454" x="0" y="350"/><use xlink:href="#L1_454" x="350" y="350"/></pattern><rect x="0" y="0" width="100%" height="100%" fill="url(#pattern_L1_454)"/></g></svg>